<svg width="56" height="56" viewBox="0 0 56 56" fill="none" xmlns="http://www.w3.org/2000/svg">
<g id="Group">
<path id="Vector" d="M28.686 0.44873H27.4424V55.869H28.686V0.44873Z" fill="white"/>
<path id="Vector_2" d="M55.7666 28.7795V27.5352L0.377926 27.5352V28.7795L55.7666 28.7795Z" fill="white"/>
<path id="Vector_3" d="M8.9165 8.12987L8.03711 9.00977L47.2025 48.1974L48.0818 47.3175L8.9165 8.12987Z" fill="white"/>
<path id="Vector_4" d="M48.0903 8.99855L47.2109 8.11865L8.04559 47.3063L8.92498 48.1862L48.0903 8.99855Z" fill="white"/>
<path id="Vector_5" d="M28.0645 33.106C30.7952 33.106 33.0088 30.8911 33.0088 28.1588C33.0088 25.4266 30.7952 23.2117 28.0645 23.2117C25.3338 23.2117 23.1201 25.4266 23.1201 28.1588C23.1201 30.8911 25.3338 33.106 28.0645 33.106Z" fill="white"/>
</g>
</svg>
