<svg width="309" height="284" viewBox="0 0 309 284" fill="none" xmlns="http://www.w3.org/2000/svg">
<path d="M134.509 180.465C127.441 180.465 120.798 176.064 116.278 168.37C112.32 161.647 110.136 152.83 110.136 143.574C110.136 134.301 112.32 125.5 116.278 118.777C120.798 111.098 127.456 106.682 134.509 106.682C141.576 106.682 148.219 111.083 152.739 118.777C156.697 125.5 158.881 134.317 158.881 143.574C158.881 152.83 156.697 161.647 152.739 168.37C148.219 176.049 141.576 180.465 134.509 180.465Z" fill="#1F2025" stroke="white" stroke-width="3" stroke-miterlimit="10"/>
<path d="M134.508 174C144.409 174 152.435 160.378 152.435 143.573C152.435 126.769 144.409 113.147 134.508 113.147C124.607 113.147 116.581 126.769 116.581 143.573C116.581 160.378 124.607 174 134.508 174Z" stroke="white" stroke-width="3" stroke-miterlimit="10"/>
<path d="M135.979 106.743L241.327 115.651C241.327 115.651 251.504 122.799 251.504 143.574C251.504 164.349 241.327 171.481 241.327 171.481L135.979 180.404" stroke="white" stroke-width="3" stroke-miterlimit="10"/>
<path d="M244.163 118.519L290.967 122.48C290.967 122.48 298.657 127.867 298.657 143.573C298.657 159.28 290.967 164.652 290.967 164.652L244.163 168.613" stroke="white" stroke-width="3" stroke-miterlimit="10"/>
<path d="M296.458 130.568L302.873 131.115C302.873 131.115 307.408 134.301 307.408 143.574C307.408 152.846 302.873 156.033 302.873 156.033L296.458 156.579" stroke="white" stroke-width="3" stroke-miterlimit="10"/>
<path d="M81.4099 180.465C74.3423 180.465 67.6993 176.064 63.1796 168.37C59.2211 161.647 57.0371 152.83 57.0371 143.574C57.0371 134.301 59.2211 125.5 63.1796 118.777C67.6993 111.098 74.3574 106.682 81.4099 106.682C88.4776 106.682 95.1206 111.083 99.6403 118.777C103.599 125.5 105.783 134.317 105.783 143.574C105.783 152.83 103.599 161.647 99.6403 168.37C95.1054 176.049 88.4624 180.465 81.4099 180.465Z" fill="#1F2025" stroke="white" stroke-width="3" stroke-miterlimit="10"/>
<path d="M81.4104 174C91.3112 174 99.3374 160.378 99.3374 143.573C99.3374 126.769 91.3112 113.147 81.4104 113.147C71.5096 113.147 63.4834 126.769 63.4834 143.573C63.4834 160.378 71.5096 174 81.4104 174Z" stroke="white" stroke-width="3" stroke-miterlimit="10"/>
<path d="M123.892 176.929L82.8662 180.404" stroke="white" stroke-width="3" stroke-miterlimit="10"/>
<path d="M82.8662 106.743L123.665 110.188" stroke="white" stroke-width="3" stroke-miterlimit="10"/>
<path d="M163.307 216.082L165.34 221.363L170.633 223.396L165.34 225.43L163.307 230.726L161.275 225.445L155.997 223.396L161.275 221.363L163.307 216.082Z" fill="#F12052"/>
<path d="M40.6023 70.0859L42.6347 75.3821L47.9278 77.4156L42.6347 79.4491L40.6023 84.7453L38.57 79.4491L33.292 77.4156L38.57 75.3821L40.6023 70.0859Z" fill="#F12052"/>
<path d="M182.223 63.0073L184.255 68.2883L189.533 70.337L184.255 72.3705L182.223 77.6515L180.175 72.3705L174.897 70.337L180.191 68.2883L182.223 63.0073Z" fill="#F12052"/>
<path d="M298.658 194.67L300.69 199.967L305.968 202L300.69 204.034L298.658 209.33L296.625 204.034L291.332 202L296.625 199.967L298.658 194.67Z" fill="#F12052"/>
<path d="M254.686 228.449H253.442V283.869H254.686V228.449Z" fill="white"/>
<path d="M281.767 256.78V255.535H226.378V256.78H281.767Z" fill="white"/>
<path d="M234.917 236.13L234.037 237.01L273.202 276.197L274.082 275.318L234.917 236.13Z" fill="white"/>
<path d="M274.09 236.999L273.211 236.119L234.046 275.306L234.925 276.186L274.09 236.999Z" fill="white"/>
<path d="M254.064 261.106C256.795 261.106 259.009 258.891 259.009 256.159C259.009 253.427 256.795 251.212 254.064 251.212C251.334 251.212 249.12 253.427 249.12 256.159C249.12 258.891 251.334 261.106 254.064 261.106Z" fill="white"/>
<path d="M189.564 2.82275V27.9531C189.564 30.3659 191.521 32.3387 193.948 32.3387H244.089C246.5 32.3387 248.472 34.2963 248.472 36.7244V65.0415C248.472 67.4544 250.428 69.4272 252.855 69.4272H301.965" stroke="white" stroke-width="3" stroke-miterlimit="10"/>
<path d="M189.564 4.90169C190.712 4.90169 191.642 3.97088 191.642 2.82267C191.642 1.67446 190.712 0.743652 189.564 0.743652C188.417 0.743652 187.486 1.67446 187.486 2.82267C187.486 3.97088 188.417 4.90169 189.564 4.90169Z" fill="white"/>
<path d="M301.934 71.5062C303.082 71.5062 304.012 70.5754 304.012 69.4272C304.012 68.279 303.082 67.3481 301.934 67.3481C300.787 67.3481 299.856 68.279 299.856 69.4272C299.856 70.5754 300.787 71.5062 301.934 71.5062Z" fill="white"/>
<path d="M2.33691 214.025H21.9474C24.5712 214.025 26.6946 216.149 26.6946 218.775V235.028C26.6946 237.653 28.8179 239.777 31.4417 239.777H80.8396C83.4634 239.777 85.5868 241.902 85.5868 244.527V272.116C85.5868 274.741 87.7101 276.866 90.3339 276.866H173.098" stroke="white" stroke-width="3" stroke-miterlimit="10"/>
<path d="M2.33662 216.104C3.48418 216.104 4.41445 215.173 4.41445 214.025C4.41445 212.877 3.48418 211.946 2.33662 211.946C1.18907 211.946 0.258789 212.877 0.258789 214.025C0.258789 215.173 1.18907 216.104 2.33662 216.104Z" fill="white"/>
<path d="M173.083 278.93C174.23 278.93 175.161 277.999 175.161 276.851C175.161 275.702 174.23 274.771 173.083 274.771C171.935 274.771 171.005 275.702 171.005 276.851C171.005 277.999 171.935 278.93 173.083 278.93Z" fill="white"/>
</svg>
