<svg width="176" height="68" viewBox="0 0 176 68" fill="none" xmlns="http://www.w3.org/2000/svg">
<g id="Group">
<path id="Vector" d="M2.33691 3.0249H21.9474C24.5712 3.0249 26.6946 5.14943 26.6946 7.77476V24.0275C26.6946 26.6529 28.8179 28.7774 31.4417 28.7774H80.8396C83.4634 28.7774 85.5868 30.9019 85.5868 33.5273V61.116C85.5868 63.7413 87.7101 65.8659 90.3339 65.8659H173.098" stroke="white" stroke-width="3" stroke-miterlimit="10"/>
<path id="Vector_2" d="M2.33662 5.10384C3.48418 5.10384 4.41445 4.17304 4.41445 3.02483C4.41445 1.87662 3.48418 0.945801 2.33662 0.945801C1.18907 0.945801 0.258789 1.87662 0.258789 3.02483C0.258789 4.17304 1.18907 5.10384 2.33662 5.10384Z" fill="white"/>
<path id="Vector_3" d="M173.083 67.9295C174.23 67.9295 175.161 66.9987 175.161 65.8505C175.161 64.7023 174.23 63.7715 173.083 63.7715C171.935 63.7715 171.005 64.7023 171.005 65.8505C171.005 66.9987 171.935 67.9295 173.083 67.9295Z" fill="white"/>
</g>
</svg>
