<svg width="118" height="72" viewBox="0 0 118 72" fill="none" xmlns="http://www.w3.org/2000/svg">
<g id="Group">
<path id="Vector" d="M2.56445 2.82275V27.9531C2.56445 30.3659 4.52094 32.3387 6.9476 32.3387H57.0886C59.5001 32.3387 61.4718 34.2963 61.4718 36.7244V65.0415C61.4718 67.4544 63.4283 69.4272 65.855 69.4272H114.965" stroke="white" stroke-width="3" stroke-miterlimit="10"/>
<path id="Vector_2" d="M2.56417 4.90169C3.71173 4.90169 4.642 3.97088 4.642 2.82267C4.642 1.67446 3.71173 0.743652 2.56417 0.743652C1.41662 0.743652 0.486328 1.67446 0.486328 2.82267C0.486328 3.97088 1.41662 4.90169 2.56417 4.90169Z" fill="white"/>
<path id="Vector_3" d="M114.934 71.5062C116.082 71.5062 117.012 70.5754 117.012 69.4272C117.012 68.279 116.082 67.3481 114.934 67.3481C113.787 67.3481 112.856 68.279 112.856 69.4272C112.856 70.5754 113.787 71.5062 114.934 71.5062Z" fill="white"/>
</g>
</svg>
