<svg width="254" height="77" viewBox="0 0 254 77" fill="none" xmlns="http://www.w3.org/2000/svg">
<g id="Group">
<path id="Vector" d="M79.5086 75.4647C72.4409 75.4647 65.7979 71.0639 61.2782 63.37C57.3197 56.6473 55.1357 47.8305 55.1357 38.5735C55.1357 29.3014 57.3197 20.4998 61.2782 13.7771C65.7979 6.09839 72.4561 1.68237 79.5086 1.68237C86.5763 1.68237 93.2192 6.08321 97.7389 13.7771C101.697 20.4998 103.881 29.3166 103.881 38.5735C103.881 47.8305 101.697 56.6473 97.7389 63.37C93.2192 71.0487 86.5763 75.4647 79.5086 75.4647Z" fill="#1F2025" stroke="white" stroke-width="3" stroke-miterlimit="10"/>
<path id="Vector_2" d="M79.5081 69C89.4089 69 97.4351 55.3775 97.4351 38.5735C97.4351 21.7694 89.4089 8.14697 79.5081 8.14697C69.6073 8.14697 61.5811 21.7694 61.5811 38.5735C61.5811 55.3775 69.6073 69 79.5081 69Z" stroke="white" stroke-width="3" stroke-miterlimit="10"/>
<path id="Vector_3" d="M80.9795 1.74316L186.327 10.6511C186.327 10.6511 196.504 17.7986 196.504 38.5736C196.504 59.3486 186.327 66.481 186.327 66.481L80.9795 75.4041" stroke="white" stroke-width="3" stroke-miterlimit="10"/>
<path id="Vector_4" d="M189.163 13.519L235.967 17.4798C235.967 17.4798 243.657 22.867 243.657 38.5735C243.657 54.2799 235.967 59.652 235.967 59.652L189.163 63.6127" stroke="white" stroke-width="3" stroke-miterlimit="10"/>
<path id="Vector_5" d="M241.458 25.5684L247.873 26.1147C247.873 26.1147 252.408 29.3015 252.408 38.5736C252.408 47.8457 247.873 51.0325 247.873 51.0325L241.458 51.5788" stroke="white" stroke-width="3" stroke-miterlimit="10"/>
<path id="Vector_6" d="M26.4099 75.4647C19.3423 75.4647 12.6993 71.0639 8.17961 63.37C4.22111 56.6473 2.03711 47.8305 2.03711 38.5735C2.03711 29.3014 4.22111 20.4998 8.17961 13.7771C12.6993 6.09839 19.3574 1.68237 26.4099 1.68237C33.4776 1.68237 40.1206 6.08321 44.6403 13.7771C48.5988 20.4998 50.7828 29.3166 50.7828 38.5735C50.7828 47.8305 48.5988 56.6473 44.6403 63.37C40.1054 71.0487 33.4624 75.4647 26.4099 75.4647Z" fill="#1F2025" stroke="white" stroke-width="3" stroke-miterlimit="10"/>
<path id="Vector_7" d="M26.4104 69C36.3112 69 44.3374 55.3775 44.3374 38.5735C44.3374 21.7694 36.3112 8.14697 26.4104 8.14697C16.5096 8.14697 8.4834 21.7694 8.4834 38.5735C8.4834 55.3775 16.5096 69 26.4104 69Z" stroke="white" stroke-width="3" stroke-miterlimit="10"/>
<path id="Vector_8" d="M68.8921 71.929L27.8662 75.4041" stroke="white" stroke-width="3" stroke-miterlimit="10"/>
<path id="Vector_9" d="M27.8662 1.74316L68.6646 5.18797" stroke="white" stroke-width="3" stroke-miterlimit="10"/>
</g>
</svg>
