<svg width="88" height="70" viewBox="0 0 88 70" fill="none" xmlns="http://www.w3.org/2000/svg">
<g id="Transport / car">
<rect width="88" height="70" fill="black"/>
<path id="Vector" d="M69.6666 27.7084H68.4933L63.9099 18.6084C63.0914 16.9904 61.6836 15.6039 59.8673 14.6268C58.0511 13.6498 55.9092 13.1268 53.7166 13.125H31.7166C29.1693 13.1192 26.6985 13.8168 24.7258 15.0988C22.7531 16.3807 21.4009 18.1675 20.8999 20.1542L18.9933 27.7084H18.3333C15.4159 27.7084 12.618 28.6302 10.5551 30.2712C8.49218 31.9121 7.33325 34.1377 7.33325 36.4584V45.2084C7.33325 45.9819 7.71956 46.7238 8.40719 47.2708C9.09483 47.8177 10.0275 48.125 10.9999 48.125H14.6666C14.6666 50.4457 15.8255 52.6713 17.8884 54.3122C19.9513 55.9532 22.7492 56.875 25.6666 56.875C28.584 56.875 31.3819 55.9532 33.4448 54.3122C35.5077 52.6713 36.6666 50.4457 36.6666 48.125H51.3333C51.3333 50.4457 52.4922 52.6713 54.5551 54.3122C56.618 55.9532 59.4159 56.875 62.3332 56.875C65.2506 56.875 68.0485 55.9532 70.1114 54.3122C72.1743 52.6713 73.3333 50.4457 73.3333 48.125H76.9999C77.9724 48.125 78.905 47.8177 79.5926 47.2708C80.2803 46.7238 80.6666 45.9819 80.6666 45.2084V36.4584C80.6666 34.1377 79.5077 31.9121 77.4448 30.2712C75.3819 28.6302 72.584 27.7084 69.6666 27.7084ZM47.6666 18.9584H53.7166C54.4447 18.9636 55.1543 19.1412 55.7551 19.4684C56.3559 19.7957 56.8205 20.2578 57.0899 20.7959L60.5732 27.7084H47.6666V18.9584ZM28.0866 21.2917C28.258 20.623 28.7188 20.0233 29.3888 19.5969C30.0587 19.1706 30.8954 18.9446 31.7533 18.9584H40.3333V27.7084H26.4732L28.0866 21.2917ZM25.6666 51.0417C24.9414 51.0417 24.2325 50.8706 23.6295 50.5502C23.0265 50.2297 22.5565 49.7741 22.279 49.2412C22.0015 48.7082 21.9289 48.1218 22.0704 47.556C22.2119 46.9902 22.5611 46.4705 23.0739 46.0626C23.5867 45.6547 24.24 45.377 24.9513 45.2644C25.6625 45.1519 26.3998 45.2096 27.0698 45.4304C27.7398 45.6511 28.3124 46.025 28.7153 46.5046C29.1182 46.9843 29.3333 47.5482 29.3333 48.125C29.3333 48.8986 28.9469 49.6405 28.2593 50.1874C27.5717 50.7344 26.639 51.0417 25.6666 51.0417ZM62.3332 51.0417C61.6081 51.0417 60.8991 50.8706 60.2962 50.5502C59.6932 50.2297 59.2232 49.7741 58.9457 49.2412C58.6682 48.7082 58.5956 48.1218 58.737 47.556C58.8785 46.9902 59.2277 46.4705 59.7405 46.0626C60.2533 45.6547 60.9067 45.377 61.6179 45.2644C62.3292 45.1519 63.0664 45.2096 63.7364 45.4304C64.4064 45.6511 64.9791 46.025 65.382 46.5046C65.7849 46.9843 65.9999 47.5482 65.9999 48.125C65.9999 48.8986 65.6136 49.6405 64.926 50.1874C64.2383 50.7344 63.3057 51.0417 62.3332 51.0417ZM73.3333 42.2917H70.4732C69.4422 41.3894 68.1856 40.6685 66.7838 40.1752C65.382 39.6818 63.8661 39.427 62.3332 39.427C60.8004 39.427 59.2845 39.6818 57.8827 40.1752C56.4809 40.6685 55.2242 41.3894 54.1932 42.2917H33.8066C32.7756 41.3894 31.5189 40.6685 30.1171 40.1752C28.7153 39.6818 27.1994 39.427 25.6666 39.427C24.1337 39.427 22.6178 39.6818 21.216 40.1752C19.8143 40.6685 18.5576 41.3894 17.5266 42.2917H14.6666V36.4584C14.6666 35.6848 15.0529 34.943 15.7405 34.396C16.4282 33.849 17.3608 33.5417 18.3333 33.5417H69.6666C70.639 33.5417 71.5717 33.849 72.2593 34.396C72.9469 34.943 73.3333 35.6848 73.3333 36.4584V42.2917Z" fill="white"/>
</g>
</svg>
