<svg width="66" height="70" viewBox="0 0 66 70" fill="none" xmlns="http://www.w3.org/2000/svg">
<g id="Frame" clip-path="url(#clip0_156_210)">
<path id="Vector" d="M33 5.83325C48.1882 5.83325 60.5 18.8912 60.5 34.9999C60.5 51.1087 48.1882 64.1666 33 64.1666C17.8118 64.1666 5.5 51.1087 5.5 34.9999C5.5 18.8912 17.8118 5.83325 33 5.83325ZM22 37.9166L11.1705 37.9195C11.7832 43.0593 13.9904 47.8369 17.4447 51.5C20.8989 55.163 25.4038 57.5033 30.25 58.1524V46.6666C28.062 46.6666 25.9635 45.7447 24.4164 44.1038C22.8692 42.4628 22 40.2372 22 37.9166ZM54.8295 37.9195L44 37.9166C44 40.2372 43.1308 42.4628 41.5836 44.1038C40.0365 45.7447 37.938 46.6666 35.75 46.6666L35.7528 58.1524C40.5984 57.5027 45.1027 55.1621 48.5564 51.4991C52.0101 47.8361 54.217 43.0589 54.8295 37.9195ZM38.5 34.9999H27.5V37.9166C27.5 38.6901 27.7897 39.432 28.3055 39.979C28.8212 40.526 29.5207 40.8333 30.25 40.8333H35.75C36.4793 40.8333 37.1788 40.526 37.6945 39.979C38.2103 39.432 38.5 38.6901 38.5 37.9166V34.9999ZM33 11.6666C27.6413 11.6667 22.4669 13.7409 18.4477 17.4999C14.4285 21.259 11.8409 26.4445 11.1705 32.0833H22C22 31.3097 22.2897 30.5678 22.8055 30.0209C23.3212 29.4739 24.0207 29.1666 24.75 29.1666H41.25C41.9793 29.1666 42.6788 29.4739 43.1945 30.0209C43.7103 30.5678 44 31.3097 44 32.0833H54.8295C54.1591 26.4445 51.5715 21.259 47.5523 17.4999C43.5331 13.7409 38.3587 11.6667 33 11.6666Z" fill="white"/>
</g>
<defs>
<clipPath id="clip0_156_210">
<rect width="66" height="70" fill="white"/>
</clipPath>
</defs>
</svg>
