<svg width="64" height="64" viewBox="0 0 64 64" fill="none" xmlns="http://www.w3.org/2000/svg">
<g id="ic:round-local-gas-station">
<path id="Vector" d="M52.7201 19.28L52.7467 19.2533L44.2401 10.7467C43.8637 10.3747 43.3559 10.1661 42.8267 10.1661C42.2976 10.1661 41.7898 10.3747 41.4134 10.7467C40.6401 11.52 40.6401 12.8 41.4134 13.5733L45.6267 17.7867C42.8267 18.8533 40.9334 21.7067 41.4134 25.0133C41.8401 27.9467 44.3467 30.32 47.2801 30.64C48.5334 30.7733 49.6267 30.56 50.6667 30.1067V49.3333C50.6667 50.8 49.4667 52 48.0001 52C46.5334 52 45.3334 50.8 45.3334 49.3333V37.3333C45.3334 34.4 42.9334 32 40.0001 32H37.3334V13.3333C37.3334 10.4 34.9334 8 32.0001 8H16.0001C13.0667 8 10.6667 10.4 10.6667 13.3333V53.3333C10.6667 54.8 11.8667 56 13.3334 56H34.6667C36.1334 56 37.3334 54.8 37.3334 53.3333V36H41.3334V48.96C41.3334 52.4533 43.8401 55.6267 47.3067 55.9733C48.2364 56.0705 49.1762 55.9712 50.065 55.6816C50.9538 55.3921 51.7717 54.9189 52.4658 54.2928C53.1598 53.6666 53.7145 52.9015 54.0936 52.0471C54.4728 51.1927 54.6681 50.2681 54.6667 49.3333V24C54.6667 22.16 53.9201 20.48 52.7201 19.28ZM32.0001 26.6667H16.0001V16C16.0001 14.5333 17.2001 13.3333 18.6667 13.3333H29.3334C30.8001 13.3333 32.0001 14.5333 32.0001 16V26.6667ZM48.0001 26.6667C46.5334 26.6667 45.3334 25.4667 45.3334 24C45.3334 22.5333 46.5334 21.3333 48.0001 21.3333C49.4667 21.3333 50.6667 22.5333 50.6667 24C50.6667 25.4667 49.4667 26.6667 48.0001 26.6667Z" fill="white"/>
</g>
</svg>
