<svg width="24" height="24" viewBox="0 0 24 24" fill="none" xmlns="http://www.w3.org/2000/svg">
<g id="brand-twitter">
<path id="Vector (Stroke)" fill-rule="evenodd" clip-rule="evenodd" d="M19.2814 3.88071C19.367 3.85705 19.451 3.83404 19.5336 3.81141C20.2554 3.61369 20.8715 3.44492 21.5244 3.12972C21.7014 3.03386 21.9084 2.99069 22.1214 3.01672C22.6231 3.07804 23.0001 3.50398 23.0001 4.00934V4.01034C23.0001 4.10222 22.9875 4.19217 22.9636 4.27814C22.771 5.02925 22.2635 6.06132 21.8659 6.8418C21.7632 7.04336 21.6687 7.22612 21.5821 7.39367C21.4832 7.58515 21.3945 7.75679 21.3154 7.91398C21.2571 8.02997 21.213 8.12069 21.182 8.18814C21.1742 9.48998 20.9951 10.7854 20.6492 12.041L20.6478 12.0458C19.4203 16.4155 16.2065 19.3466 12.3131 20.4776L12.3129 20.4777C8.8769 21.4751 4.99812 20.7733 1.52153 18.8784C1.11374 18.6561 0.912642 18.1823 1.03606 17.7346C1.15947 17.2869 1.57491 16.983 2.039 17.0011C3.44502 17.0558 4.6941 16.7028 5.94842 16.0589C4.65017 15.2567 3.71768 14.3217 3.07835 13.3116C2.19621 11.9178 1.91904 10.4552 1.9319 9.15284C1.94469 7.85815 2.24338 6.70537 2.53097 5.88621C2.67574 5.47386 2.82037 5.13851 2.93066 4.90284C2.98588 4.78482 3.03275 4.69127 3.06707 4.62497C3.08423 4.59181 3.09829 4.56542 3.1087 4.54615L3.12155 4.52262L3.12581 4.51492L3.12739 4.51211L3.12803 4.51096C3.12831 4.51046 3.12858 4.50999 4.0001 5.00034L3.12858 4.50999C3.29619 4.21207 3.60438 4.02041 3.9457 4.00182C4.28703 3.98322 4.61421 4.14027 4.8132 4.41821C6.29896 6.49348 8.49453 7.76358 10.9998 7.97291C10.9883 5.86765 12.3127 4.05954 14.2694 3.32684C15.8937 2.71864 17.8162 2.64816 19.2814 3.88071ZM4.3005 6.90659C4.10579 7.54267 3.94013 8.32935 3.93181 9.17258C3.92191 10.1743 4.13337 11.2388 4.7683 12.242C5.40179 13.2428 6.50381 14.2571 8.39974 15.0837C8.73518 15.2299 8.96396 15.5477 8.99621 15.9122C9.02847 16.2767 8.85905 16.6297 8.5545 16.8326C7.60281 17.4665 6.62155 18.0207 5.56931 18.4109C7.72357 19.0402 9.85922 19.1074 11.7551 18.557M4.3005 6.90659C6.314 8.94831 9.03725 10.0764 12.0257 10C12.5678 9.98614 13.0001 9.54266 13.0001 9.00034V8.00034H13.0002L13 7.98662C12.9831 6.75545 13.7462 5.65836 14.9708 5.19983C16.3614 4.67911 17.5144 4.83151 18.2517 5.66356C18.509 5.95392 18.911 6.06925 19.2831 5.95945C19.4914 5.898 19.7106 5.83817 19.938 5.77613C20.0242 5.7526 20.1116 5.72875 20.2 5.70437C20.1617 5.78062 20.1229 5.85721 20.0838 5.93387C19.9951 6.10806 19.9026 6.28723 19.8145 6.45781C19.7078 6.66436 19.6077 6.85831 19.5286 7.01556C19.454 7.16397 19.384 7.30724 19.3312 7.4278C19.3052 7.48712 19.2762 7.55689 19.2521 7.62788C19.2516 7.62911 19.2512 7.63051 19.2506 7.63208C19.2363 7.6738 19.1811 7.8349 19.1821 8.02787C19.1886 9.20337 19.0337 10.3742 18.7216 11.5075C17.6906 15.1743 15.0211 17.6082 11.7553 18.557" fill="#1F2025"/>
</g>
</svg>
