<svg width="24" height="32" viewBox="0 0 24 32" fill="none" xmlns="http://www.w3.org/2000/svg">
<g id="Communication / Phone">
<path id="Vector" d="M7.64593 3.9754H4.89474C3.8483 3.9754 3 5.09951 3 6.48617C3 18.2727 10.2106 27.8276 19.1053 27.8276C20.1517 27.8276 21 26.7035 21 25.3169V21.6712C21 20.5875 20.5021 19.613 19.7428 19.2105L17.1071 17.8135C16.4251 17.4519 15.6483 17.615 15.084 18.2382L14.4031 18.9901C13.6084 19.8676 12.44 19.7973 11.7085 18.8281L9.79148 16.2878C9.06004 15.3185 9.00704 13.7701 9.66925 12.7171L10.2366 11.8149C10.7069 11.0671 10.83 10.0378 10.5572 9.13395L9.50289 5.64137C9.19916 4.63518 8.46374 3.9754 7.64593 3.9754Z" stroke="black" stroke-width="2" stroke-linecap="round" stroke-linejoin="round"/>
</g>
</svg>
