<svg width="100" height="101" viewBox="0 0 100 101" fill="none" xmlns="http://www.w3.org/2000/svg">
<g id="ant-design:car-outlined">
<path id="Vector" d="M37.1094 69.6202H62.8907C63.3204 69.6202 63.6719 69.2687 63.6719 68.839V60.6359C63.6719 60.2062 63.3204 59.8546 62.8907 59.8546H58.9844C58.5547 59.8546 58.2032 60.2062 58.2032 60.6359V64.1515H41.7969V60.6359C41.7969 60.2062 41.4454 59.8546 41.0157 59.8546H37.1094C36.6797 59.8546 36.3282 60.2062 36.3282 60.6359V68.839C36.3282 69.2687 36.6797 69.6202 37.1094 69.6202ZM70.3125 57.6085C70.3125 58.6445 70.7241 59.6381 71.4567 60.3707C72.1892 61.1032 73.1828 61.5148 74.2188 61.5148C75.2548 61.5148 76.2484 61.1032 76.9809 60.3707C77.7135 59.6381 78.125 58.6445 78.125 57.6085C78.125 56.5725 77.7135 55.5789 76.9809 54.8464C76.2484 54.1138 75.2548 53.7023 74.2188 53.7023C73.1828 53.7023 72.1892 54.1138 71.4567 54.8464C70.7241 55.5789 70.3125 56.5725 70.3125 57.6085ZM93.6524 41.2413L91.3379 37.1984C91.2339 37.0201 91.0635 36.8903 90.8641 36.8373C90.6647 36.7842 90.4523 36.8122 90.2735 36.9152L85.3223 39.8058L77.6758 18.6925C77.2721 17.4327 76.4785 16.3338 75.4095 15.5544C74.3405 14.775 73.0515 14.3556 71.7286 14.3566H29.4141C26.0254 14.3566 23.0176 16.5441 21.9727 19.7765L14.6875 39.8156L9.72661 36.9249C9.54775 36.822 9.33542 36.794 9.13598 36.847C8.93655 36.9001 8.7662 37.0299 8.66216 37.2081L6.3477 41.2413C6.13286 41.6124 6.25981 42.0812 6.63091 42.296L12.5293 45.7335L11.1133 49.6398C10.9961 49.9523 10.9375 50.2843 10.9375 50.6163V84.6202C10.9375 86.1534 12.0899 87.3937 13.5059 87.3937H20.1075C21.3086 87.3937 22.3536 86.4855 22.6075 85.2159L23.3594 81.5343H76.6407L77.3926 85.2159C77.6563 86.4855 78.6915 87.3937 79.8926 87.3937H86.4942C87.9102 87.3937 89.0625 86.1534 89.0625 84.6202V50.6163C89.0625 50.2843 89.004 49.9523 88.8868 49.6398L87.4707 45.7335L93.3594 42.296C93.5367 42.1937 93.6667 42.0258 93.7215 41.8286C93.7763 41.6313 93.7515 41.4205 93.6524 41.2413ZM82.0313 51.3585V74.5031H17.9688V51.3585L19.4922 47.1593H80.5079L82.0313 51.3585ZM28.584 22.1691L28.6329 22.0421L28.6719 21.9152C28.7793 21.5929 29.0723 21.3781 29.4141 21.3781H71.1719L78.5352 41.6906H21.4844L28.584 22.1691ZM21.875 57.6085C21.875 58.6445 22.2866 59.6381 23.0192 60.3707C23.7517 61.1032 24.7453 61.5148 25.7813 61.5148C26.8173 61.5148 27.8109 61.1032 28.5434 60.3707C29.276 59.6381 29.6875 58.6445 29.6875 57.6085C29.6875 56.5725 29.276 55.5789 28.5434 54.8464C27.8109 54.1138 26.8173 53.7023 25.7813 53.7023C24.7453 53.7023 23.7517 54.1138 23.0192 54.8464C22.2866 55.5789 21.875 56.5725 21.875 57.6085Z" fill="white"/>
</g>
</svg>
