<svg width="52" height="52" viewBox="0 0 52 52" fill="none" xmlns="http://www.w3.org/2000/svg">
<g id="logo">
<path id="Vector" d="M19.5 41.1666C10.1833 44.1999 10.1833 35.7499 6.5 34.6666M32.5 45.4999V37.9166C32.5 35.7499 32.7167 34.8832 31.4167 33.5832C37.4833 32.9332 43.3333 30.5499 43.3333 20.5832C43.3307 17.994 42.3205 15.5074 40.5167 13.6499C41.3627 11.4008 41.2848 8.90842 40.3 6.71656C40.3 6.71656 37.9167 6.06656 32.7167 9.53323C28.3123 8.38617 23.6876 8.38617 19.2833 9.53323C14.0833 6.06656 11.7 6.71656 11.7 6.71656C10.7152 8.90842 10.6373 11.4008 11.4833 13.6499C9.67948 15.5074 8.6693 17.994 8.66667 20.5832C8.66667 30.5499 14.5167 32.9332 20.5833 33.5832C19.2833 34.8832 19.2833 36.1832 19.5 37.9166V45.4999" stroke="white" stroke-width="3" stroke-linecap="round" stroke-linejoin="round"/>
</g>
</svg>
