<svg width="970" height="340" viewBox="0 0 970 340" fill="none" xmlns="http://www.w3.org/2000/svg">
<rect width="970" height="340" fill="white"/>
<path opacity="0.07" d="M914.522 171.246L926.337 168.57C928.214 168.145 930 169.572 930 171.496V229C930 230.657 928.657 232 927 232H43C41.3431 232 40 230.657 40 229V118.783C40 116.914 41.6902 115.5 43.5296 115.83L54.1981 117.744C54.6167 117.819 55.0466 117.804 55.4591 117.7L69.3467 114.209C69.8901 114.072 70.4609 114.091 70.9944 114.262L85.1494 118.802C85.3973 118.881 85.6547 118.928 85.9147 118.941L101.379 119.72L116.213 118.922L131.818 119.707C131.985 119.716 132.152 119.71 132.319 119.691L147.563 117.9C147.804 117.872 148.047 117.873 148.287 117.903L162.759 119.72L177.691 121.791C177.965 121.829 178.242 121.829 178.516 121.791L193.448 119.72L208.793 117.858L222.203 114.37C223.101 114.137 224.056 114.332 224.791 114.898L238.379 125.382C238.768 125.682 239.224 125.882 239.708 125.964L254.828 128.537L269.889 133.3C270.077 133.359 270.271 133.4 270.468 133.421L284.364 134.936C284.787 134.982 285.215 134.937 285.62 134.805L300.039 130.098C300.577 129.922 301.153 129.902 301.701 130.04L315.004 133.381C315.459 133.495 315.88 133.714 316.235 134.021L330.235 146.118C331.049 146.821 332.178 147.035 333.193 146.677L345.839 142.221C346.815 141.878 347.899 142.061 348.708 142.706L361.743 153.109C362.071 153.372 362.452 153.562 362.859 153.668L376.447 157.202C377.179 157.392 377.957 157.299 378.623 156.94L390.581 150.506C391.686 149.911 393.044 150.067 393.986 150.897L406.71 162.105C407.651 162.934 409.009 163.09 410.113 162.496L422.52 155.828C423.225 155.45 424.051 155.368 424.816 155.601L438.454 159.759L454.31 162.952L467.861 165.343C468.367 165.432 468.887 165.39 469.372 165.221L484.151 160.056C484.705 159.862 485.303 159.835 485.872 159.978L499.833 163.484L514.791 165.429C515.048 165.462 515.308 165.462 515.565 165.429L529.983 163.554C530.34 163.508 530.703 163.526 531.053 163.608L545.146 166.907C545.62 167.017 546.114 167.011 546.585 166.889L561.724 162.952L577.58 159.759L591.201 155.585C591.662 155.443 592.15 155.415 592.624 155.503L607.759 158.296L622.592 162.952L637.41 166.934C637.758 167.027 638.121 167.057 638.48 167.022L654.305 165.479L668.634 163.038C668.967 162.981 669.308 162.981 669.642 163.038L683.971 165.479L699.439 166.025C700.026 166.046 700.606 165.894 701.108 165.588L712.778 158.468C713.635 157.945 714.696 157.885 715.606 158.308L730.427 165.199C730.823 165.384 731.255 165.479 731.692 165.479H745.351L761.207 163.484L776.552 159.493L791.861 157.695C792.223 157.653 792.589 157.676 792.942 157.765L806.511 161.172C806.99 161.293 807.492 161.293 807.972 161.172L822.075 157.631L836.959 153.881C837.891 153.646 838.879 153.872 839.616 154.488L852.484 165.245C852.67 165.4 852.875 165.533 853.093 165.639L868.636 173.218C868.964 173.378 869.319 173.477 869.682 173.51L883.434 174.743C883.785 174.774 884.14 174.744 884.481 174.652L898.365 170.917C898.653 170.839 898.95 170.805 899.248 170.815L913.756 171.319C914.013 171.327 914.271 171.303 914.522 171.246Z" fill="#F12052"/>
<rect x="373" y="276" width="224" height="44" rx="22" fill="#1F2025" fill-opacity="0.02"/>
<circle cx="397" cy="298" r="4" fill="#205BF1"/>
<path d="M407.72 302V293.6H412.682V295.064H409.184V296.768H412.106V298.232H409.184V302H407.72ZM413.204 296H414.668V302H413.204V296ZM413.948 295.226C413.732 295.226 413.55 295.156 413.402 295.016C413.254 294.872 413.18 294.692 413.18 294.476C413.18 294.264 413.254 294.086 413.402 293.942C413.55 293.798 413.73 293.726 413.942 293.726C414.154 293.726 414.332 293.798 414.476 293.942C414.624 294.086 414.698 294.264 414.698 294.476C414.698 294.692 414.626 294.872 414.482 295.016C414.338 295.156 414.16 295.226 413.948 295.226ZM420.422 296H421.886V302.114C421.886 302.546 421.798 302.938 421.622 303.29C421.446 303.646 421.206 303.95 420.902 304.202C420.598 304.458 420.25 304.654 419.858 304.79C419.466 304.93 419.054 305 418.622 305C418.202 305 417.798 304.914 417.41 304.742C417.022 304.57 416.678 304.334 416.378 304.034C416.082 303.738 415.856 303.4 415.7 303.02L417.038 302.414C417.118 302.634 417.238 302.826 417.398 302.99C417.562 303.158 417.75 303.288 417.962 303.38C418.174 303.476 418.394 303.524 418.622 303.524C418.854 303.524 419.076 303.492 419.288 303.428C419.504 303.364 419.698 303.27 419.87 303.146C420.042 303.026 420.176 302.878 420.272 302.702C420.372 302.53 420.422 302.334 420.422 302.114V301.268C420.234 301.532 419.998 301.746 419.714 301.91C419.43 302.074 419.102 302.156 418.73 302.156C418.298 302.156 417.894 302.074 417.518 301.91C417.142 301.746 416.81 301.52 416.522 301.232C416.238 300.94 416.014 300.604 415.85 300.224C415.69 299.844 415.61 299.436 415.61 299C415.61 298.564 415.69 298.156 415.85 297.776C416.014 297.396 416.238 297.062 416.522 296.774C416.81 296.482 417.142 296.254 417.518 296.09C417.894 295.926 418.298 295.844 418.73 295.844C419.102 295.844 419.43 295.926 419.714 296.09C419.998 296.25 420.234 296.462 420.422 296.726V296ZM418.748 300.746C419.056 300.746 419.328 300.668 419.564 300.512C419.804 300.352 419.992 300.14 420.128 299.876C420.264 299.608 420.332 299.316 420.332 299C420.332 298.68 420.262 298.388 420.122 298.124C419.986 297.86 419.798 297.648 419.558 297.488C419.322 297.328 419.052 297.248 418.748 297.248C418.448 297.248 418.174 297.328 417.926 297.488C417.678 297.644 417.48 297.854 417.332 298.118C417.184 298.382 417.11 298.676 417.11 299C417.11 299.324 417.184 299.618 417.332 299.882C417.48 300.146 417.678 300.356 417.926 300.512C418.174 300.668 418.448 300.746 418.748 300.746ZM423.329 302V296H424.793V296.534C424.997 296.318 425.241 296.148 425.525 296.024C425.809 295.896 426.115 295.832 426.443 295.832C426.859 295.832 427.241 295.93 427.589 296.126C427.941 296.322 428.221 296.584 428.429 296.912C428.641 296.584 428.921 296.322 429.269 296.126C429.617 295.93 429.999 295.832 430.415 295.832C430.855 295.832 431.253 295.94 431.609 296.156C431.969 296.368 432.255 296.654 432.467 297.014C432.683 297.37 432.791 297.768 432.791 298.208V302H431.327V298.598C431.327 298.366 431.269 298.154 431.153 297.962C431.041 297.766 430.889 297.61 430.697 297.494C430.509 297.374 430.297 297.314 430.061 297.314C429.825 297.314 429.611 297.372 429.419 297.488C429.231 297.6 429.079 297.752 428.963 297.944C428.847 298.136 428.789 298.354 428.789 298.598V302H427.325V298.598C427.325 298.354 427.269 298.136 427.157 297.944C427.045 297.752 426.893 297.6 426.701 297.488C426.509 297.372 426.295 297.314 426.059 297.314C425.827 297.314 425.615 297.374 425.423 297.494C425.231 297.61 425.077 297.766 424.961 297.962C424.849 298.154 424.793 298.366 424.793 298.598V302H423.329ZM438.4 296H439.864V302H438.4L438.334 301.256C438.17 301.524 437.952 301.742 437.68 301.91C437.412 302.074 437.094 302.156 436.726 302.156C436.282 302.156 435.866 302.072 435.478 301.904C435.09 301.736 434.748 301.504 434.452 301.208C434.16 300.912 433.93 300.57 433.762 300.182C433.598 299.794 433.516 299.378 433.516 298.934C433.516 298.506 433.594 298.104 433.75 297.728C433.91 297.352 434.132 297.022 434.416 296.738C434.7 296.454 435.028 296.232 435.4 296.072C435.772 295.912 436.172 295.832 436.6 295.832C436.996 295.832 437.35 295.92 437.662 296.096C437.978 296.272 438.246 296.496 438.466 296.768L438.4 296ZM436.69 300.746C437.002 300.746 437.278 300.668 437.518 300.512C437.758 300.356 437.946 300.146 438.082 299.882C438.218 299.614 438.286 299.32 438.286 299C438.286 298.676 438.218 298.382 438.082 298.118C437.946 297.85 437.756 297.638 437.512 297.482C437.272 297.326 436.998 297.248 436.69 297.248C436.382 297.248 436.1 297.328 435.844 297.488C435.592 297.644 435.39 297.854 435.238 298.118C435.09 298.382 435.016 298.676 435.016 299C435.016 299.324 435.092 299.618 435.244 299.882C435.396 300.146 435.598 300.356 435.85 300.512C436.106 300.668 436.386 300.746 436.69 300.746Z" fill="#1F2025"/>
<circle cx="465" cy="298" r="4" fill="#E9900C"/>
<path d="M478.744 302.156C478.28 302.156 477.834 302.084 477.406 301.94C476.982 301.792 476.61 301.582 476.29 301.31C475.97 301.034 475.74 300.704 475.6 300.32L476.974 299.816C477.03 299.976 477.144 300.122 477.316 300.254C477.488 300.386 477.698 300.492 477.946 300.572C478.194 300.652 478.46 300.692 478.744 300.692C479.036 300.692 479.308 300.648 479.56 300.56C479.816 300.468 480.022 300.342 480.178 300.182C480.334 300.018 480.412 299.828 480.412 299.612C480.412 299.392 480.33 299.212 480.166 299.072C480.002 298.928 479.792 298.814 479.536 298.73C479.28 298.646 479.016 298.582 478.744 298.538C478.148 298.446 477.614 298.304 477.142 298.112C476.67 297.92 476.296 297.654 476.02 297.314C475.748 296.974 475.612 296.534 475.612 295.994C475.612 295.486 475.758 295.042 476.05 294.662C476.342 294.282 476.726 293.986 477.202 293.774C477.678 293.562 478.192 293.456 478.744 293.456C479.204 293.456 479.648 293.528 480.076 293.672C480.504 293.816 480.878 294.026 481.198 294.302C481.522 294.578 481.754 294.91 481.894 295.298L480.514 295.796C480.458 295.636 480.344 295.49 480.172 295.358C480 295.226 479.79 295.122 479.542 295.046C479.294 294.966 479.028 294.926 478.744 294.926C478.46 294.922 478.19 294.968 477.934 295.064C477.682 295.156 477.476 295.282 477.316 295.442C477.156 295.602 477.076 295.786 477.076 295.994C477.076 296.262 477.15 296.464 477.298 296.6C477.45 296.736 477.652 296.836 477.904 296.9C478.156 296.96 478.436 297.016 478.744 297.068C479.304 297.156 479.822 297.304 480.298 297.512C480.774 297.72 481.156 297.998 481.444 298.346C481.732 298.69 481.876 299.112 481.876 299.612C481.876 300.12 481.732 300.566 481.444 300.95C481.156 301.33 480.774 301.626 480.298 301.838C479.822 302.05 479.304 302.156 478.744 302.156ZM488.601 302H486.915L485.547 299.642L484.707 300.644V302H483.243V293H484.707V298.37L486.693 296H488.607L486.549 298.454L488.601 302ZM491.801 302.156C491.249 302.156 490.745 302.014 490.289 301.73C489.837 301.446 489.475 301.064 489.203 300.584C488.935 300.104 488.801 299.574 488.801 298.994C488.801 298.558 488.879 298.15 489.035 297.77C489.191 297.386 489.405 297.05 489.677 296.762C489.953 296.47 490.273 296.242 490.637 296.078C491.001 295.914 491.389 295.832 491.801 295.832C492.269 295.832 492.697 295.932 493.085 296.132C493.477 296.328 493.809 296.598 494.081 296.942C494.353 297.286 494.551 297.678 494.675 298.118C494.799 298.558 494.827 299.018 494.759 299.498H490.373C490.429 299.722 490.521 299.924 490.649 300.104C490.777 300.28 490.939 300.422 491.135 300.53C491.331 300.634 491.553 300.688 491.801 300.692C492.057 300.696 492.289 300.636 492.497 300.512C492.709 300.384 492.885 300.212 493.025 299.996L494.519 300.344C494.275 300.876 493.911 301.312 493.427 301.652C492.943 301.988 492.401 302.156 491.801 302.156ZM490.325 298.4H493.277C493.233 298.16 493.139 297.944 492.995 297.752C492.855 297.556 492.681 297.4 492.473 297.284C492.265 297.168 492.041 297.11 491.801 297.11C491.561 297.11 491.339 297.168 491.135 297.284C490.931 297.396 490.757 297.55 490.613 297.746C490.473 297.938 490.377 298.156 490.325 298.4ZM498.952 297.464H497.788V302H496.324V297.464H495.436V296H496.324V294.116H497.788V296H498.952V297.464ZM503.616 300.194L504.936 300.908C504.66 301.284 504.314 301.586 503.898 301.814C503.482 302.042 503.028 302.156 502.536 302.156C501.984 302.156 501.48 302.014 501.024 301.73C500.572 301.446 500.21 301.066 499.938 300.59C499.67 300.11 499.536 299.58 499.536 299C499.536 298.56 499.614 298.15 499.77 297.77C499.926 297.386 500.14 297.05 500.412 296.762C500.688 296.47 501.008 296.242 501.372 296.078C501.736 295.914 502.124 295.832 502.536 295.832C503.028 295.832 503.482 295.946 503.898 296.174C504.314 296.402 504.66 296.708 504.936 297.092L503.616 297.8C503.476 297.64 503.31 297.516 503.118 297.428C502.93 297.34 502.736 297.296 502.536 297.296C502.248 297.296 501.988 297.376 501.756 297.536C501.524 297.692 501.34 297.9 501.204 298.16C501.068 298.416 501 298.696 501 299C501 299.3 501.068 299.58 501.204 299.84C501.34 300.096 501.524 300.302 501.756 300.458C501.988 300.614 502.248 300.692 502.536 300.692C502.744 300.692 502.942 300.648 503.13 300.56C503.318 300.468 503.48 300.346 503.616 300.194ZM511.321 298.208V302H509.857V298.592C509.857 298.356 509.799 298.142 509.683 297.95C509.567 297.754 509.411 297.6 509.215 297.488C509.023 297.372 508.809 297.314 508.573 297.314C508.337 297.314 508.121 297.372 507.925 297.488C507.733 297.6 507.579 297.754 507.463 297.95C507.351 298.142 507.295 298.356 507.295 298.592V302H505.831L505.825 293H507.289L507.295 296.534C507.499 296.318 507.743 296.148 508.027 296.024C508.311 295.896 508.617 295.832 508.945 295.832C509.381 295.832 509.779 295.94 510.139 296.156C510.499 296.368 510.785 296.654 510.997 297.014C511.213 297.37 511.321 297.768 511.321 298.208Z" fill="#1F2025"/>
<circle cx="536" cy="298" r="4" fill="#F12052"/>
<path d="M553.08 293.6V295.064H550.512V302H549.048V295.064H546.48V293.6H553.08ZM557.889 296H559.353V302H557.889L557.823 301.256C557.659 301.524 557.441 301.742 557.169 301.91C556.901 302.074 556.583 302.156 556.215 302.156C555.771 302.156 555.355 302.072 554.967 301.904C554.579 301.736 554.237 301.504 553.941 301.208C553.649 300.912 553.419 300.57 553.251 300.182C553.087 299.794 553.005 299.378 553.005 298.934C553.005 298.506 553.083 298.104 553.239 297.728C553.399 297.352 553.621 297.022 553.905 296.738C554.189 296.454 554.517 296.232 554.889 296.072C555.261 295.912 555.661 295.832 556.089 295.832C556.485 295.832 556.839 295.92 557.151 296.096C557.467 296.272 557.735 296.496 557.955 296.768L557.889 296ZM556.179 300.746C556.491 300.746 556.767 300.668 557.007 300.512C557.247 300.356 557.435 300.146 557.571 299.882C557.707 299.614 557.775 299.32 557.775 299C557.775 298.676 557.707 298.382 557.571 298.118C557.435 297.85 557.245 297.638 557.001 297.482C556.761 297.326 556.487 297.248 556.179 297.248C555.871 297.248 555.589 297.328 555.333 297.488C555.081 297.644 554.879 297.854 554.727 298.118C554.579 298.382 554.505 298.676 554.505 299C554.505 299.324 554.581 299.618 554.733 299.882C554.885 300.146 555.087 300.356 555.339 300.512C555.595 300.668 555.875 300.746 556.179 300.746ZM562.318 302.108C562.006 302.088 561.704 302.026 561.412 301.922C561.124 301.814 560.868 301.668 560.644 301.484C560.42 301.3 560.248 301.08 560.128 300.824L561.364 300.296C561.412 300.376 561.49 300.462 561.598 300.554C561.706 300.642 561.834 300.716 561.982 300.776C562.134 300.836 562.3 300.866 562.48 300.866C562.632 300.866 562.776 300.846 562.912 300.806C563.052 300.762 563.164 300.696 563.248 300.608C563.336 300.52 563.38 300.406 563.38 300.266C563.38 300.118 563.328 300.004 563.224 299.924C563.124 299.84 562.996 299.778 562.84 299.738C562.688 299.694 562.54 299.654 562.396 299.618C562.016 299.542 561.662 299.424 561.334 299.264C561.01 299.104 560.748 298.898 560.548 298.646C560.352 298.39 560.254 298.082 560.254 297.722C560.254 297.326 560.358 296.984 560.566 296.696C560.778 296.408 561.052 296.186 561.388 296.03C561.728 295.874 562.094 295.796 562.486 295.796C562.962 295.796 563.398 295.896 563.794 296.096C564.194 296.292 564.51 296.57 564.742 296.93L563.584 297.614C563.528 297.518 563.45 297.43 563.35 297.35C563.25 297.266 563.136 297.198 563.008 297.146C562.88 297.09 562.746 297.058 562.606 297.05C562.426 297.042 562.262 297.058 562.114 297.098C561.966 297.138 561.846 297.206 561.754 297.302C561.666 297.398 561.622 297.526 561.622 297.686C561.622 297.838 561.682 297.952 561.802 298.028C561.922 298.1 562.066 298.156 562.234 298.196C562.406 298.236 562.57 298.28 562.726 298.328C563.078 298.444 563.408 298.586 563.716 298.754C564.028 298.922 564.278 299.128 564.466 299.372C564.654 299.616 564.744 299.908 564.736 300.248C564.736 300.636 564.62 300.976 564.388 301.268C564.156 301.556 563.856 301.776 563.488 301.928C563.124 302.08 562.734 302.14 562.318 302.108ZM571.121 302H569.435L568.067 299.642L567.227 300.644V302H565.763V293H567.227V298.37L569.213 296H571.127L569.069 298.454L571.121 302ZM573.697 302.108C573.385 302.088 573.083 302.026 572.791 301.922C572.503 301.814 572.247 301.668 572.023 301.484C571.799 301.3 571.627 301.08 571.507 300.824L572.743 300.296C572.791 300.376 572.869 300.462 572.977 300.554C573.085 300.642 573.213 300.716 573.361 300.776C573.513 300.836 573.679 300.866 573.859 300.866C574.011 300.866 574.155 300.846 574.291 300.806C574.431 300.762 574.543 300.696 574.627 300.608C574.715 300.52 574.759 300.406 574.759 300.266C574.759 300.118 574.707 300.004 574.603 299.924C574.503 299.84 574.375 299.778 574.219 299.738C574.067 299.694 573.919 299.654 573.775 299.618C573.395 299.542 573.041 299.424 572.713 299.264C572.389 299.104 572.127 298.898 571.927 298.646C571.731 298.39 571.633 298.082 571.633 297.722C571.633 297.326 571.737 296.984 571.945 296.696C572.157 296.408 572.431 296.186 572.767 296.03C573.107 295.874 573.473 295.796 573.865 295.796C574.341 295.796 574.777 295.896 575.173 296.096C575.573 296.292 575.889 296.57 576.121 296.93L574.963 297.614C574.907 297.518 574.829 297.43 574.729 297.35C574.629 297.266 574.515 297.198 574.387 297.146C574.259 297.09 574.125 297.058 573.985 297.05C573.805 297.042 573.641 297.058 573.493 297.098C573.345 297.138 573.225 297.206 573.133 297.302C573.045 297.398 573.001 297.526 573.001 297.686C573.001 297.838 573.061 297.952 573.181 298.028C573.301 298.1 573.445 298.156 573.613 298.196C573.785 298.236 573.949 298.28 574.105 298.328C574.457 298.444 574.787 298.586 575.095 298.754C575.407 298.922 575.657 299.128 575.845 299.372C576.033 299.616 576.123 299.908 576.115 300.248C576.115 300.636 575.999 300.976 575.767 301.268C575.535 301.556 575.235 301.776 574.867 301.928C574.503 302.08 574.113 302.14 573.697 302.108Z" fill="#1F2025"/>
<rect x="372.5" y="275.5" width="225" height="45" rx="22.5" stroke="#1F2025" stroke-opacity="0.05"/>
<rect opacity="0.03" x="40" y="40" width="890" height="1" fill="#1F2025"/>
<rect opacity="0.03" x="40" y="71.8335" width="890" height="1" fill="#1F2025"/>
<rect opacity="0.03" x="40" y="103.667" width="890" height="1" fill="#1F2025"/>
<rect opacity="0.03" x="40" y="135.5" width="890" height="1" fill="#1F2025"/>
<rect opacity="0.03" x="40" y="167.333" width="890" height="1" fill="#1F2025"/>
<rect opacity="0.03" x="40" y="199.167" width="890" height="1" fill="#1F2025"/>
<rect opacity="0.03" x="40" y="231" width="890" height="1" fill="#1F2025"/>
<path opacity="0.2" d="M49.5313 253.13C49.2647 253.13 49.003 253.085 48.7463 252.995C48.493 252.905 48.2647 252.772 48.0613 252.595L48.9463 251.535C49.0097 251.585 49.0897 251.633 49.1863 251.68C49.283 251.727 49.398 251.75 49.5313 251.75C49.7013 251.75 49.8547 251.708 49.9913 251.625C50.1313 251.538 50.243 251.425 50.3263 251.285C50.4097 251.142 50.4513 250.987 50.4513 250.82V246H51.8313V250.82C51.8313 251.243 51.728 251.63 51.5213 251.98C51.3147 252.327 51.0363 252.605 50.6863 252.815C50.3397 253.025 49.9547 253.13 49.5313 253.13ZM55.3716 246H56.9416L59.4816 253H58.0166L57.5966 251.84H54.7166L54.2966 253H52.8316L55.3716 246ZM55.2216 250.46H57.0916L56.1516 247.895L55.2216 250.46ZM60.2973 253V246H61.7873L64.5173 250.505V246H65.8973V253H64.4073L61.6773 248.495V253H60.2973ZM69.2965 253V251.77C69.4965 251.63 69.7398 251.45 70.0265 251.23C70.3132 251.007 70.6115 250.762 70.9215 250.495C71.2315 250.225 71.5198 249.952 71.7865 249.675C72.0565 249.398 72.2748 249.137 72.4415 248.89C72.6115 248.643 72.6965 248.432 72.6965 248.255C72.6965 248.072 72.6515 247.903 72.5615 247.75C72.4715 247.597 72.3515 247.475 72.2015 247.385C72.0515 247.295 71.8848 247.25 71.7015 247.25C71.5182 247.25 71.3498 247.295 71.1965 247.385C71.0465 247.475 70.9248 247.597 70.8315 247.75C70.7415 247.903 70.6965 248.072 70.6965 248.255H69.3165C69.3165 247.805 69.4248 247.4 69.6415 247.04C69.8615 246.68 70.1515 246.395 70.5115 246.185C70.8748 245.975 71.2715 245.87 71.7015 245.87C72.1382 245.87 72.5365 245.977 72.8965 246.19C73.2565 246.403 73.5432 246.692 73.7565 247.055C73.9698 247.415 74.0765 247.815 74.0765 248.255C74.0765 248.482 74.0415 248.702 73.9715 248.915C73.9048 249.128 73.8065 249.342 73.6765 249.555C73.5465 249.765 73.3882 249.98 73.2015 250.2C73.0182 250.417 72.8098 250.643 72.5765 250.88C72.3465 251.113 72.0982 251.36 71.8315 251.62H74.0965V253H69.2965ZM77.4834 253.13C77.08 253.13 76.7117 253.037 76.3784 252.85C76.045 252.66 75.755 252.398 75.5084 252.065C75.265 251.732 75.0767 251.347 74.9434 250.91C74.81 250.47 74.7434 250 74.7434 249.5C74.7434 249 74.81 248.532 74.9434 248.095C75.0767 247.655 75.265 247.268 75.5084 246.935C75.755 246.602 76.045 246.342 76.3784 246.155C76.7117 245.965 77.08 245.87 77.4834 245.87C77.8867 245.87 78.255 245.965 78.5884 246.155C78.9217 246.342 79.2084 246.602 79.4484 246.935C79.6917 247.268 79.88 247.655 80.0134 248.095C80.1467 248.532 80.2134 249 80.2134 249.5C80.2134 250 80.1467 250.47 80.0134 250.91C79.88 251.347 79.6917 251.732 79.4484 252.065C79.2084 252.398 78.9217 252.66 78.5884 252.85C78.255 253.037 77.8867 253.13 77.4834 253.13ZM77.4834 251.75C77.8134 251.75 78.085 251.643 78.2984 251.43C78.5117 251.217 78.6684 250.938 78.7684 250.595C78.8717 250.252 78.9234 249.887 78.9234 249.5C78.9234 249.09 78.8684 248.715 78.7584 248.375C78.6517 248.035 78.4917 247.763 78.2784 247.56C78.065 247.353 77.8 247.25 77.4834 247.25C77.2334 247.25 77.0167 247.312 76.8334 247.435C76.6534 247.558 76.5034 247.727 76.3834 247.94C76.2667 248.153 76.1784 248.395 76.1184 248.665C76.0617 248.932 76.0334 249.21 76.0334 249.5C76.0334 249.887 76.085 250.252 76.1884 250.595C76.295 250.935 76.455 251.213 76.6684 251.43C76.885 251.643 77.1567 251.75 77.4834 251.75ZM80.9176 253V251.77C81.1176 251.63 81.3609 251.45 81.6476 251.23C81.9342 251.007 82.2326 250.762 82.5426 250.495C82.8526 250.225 83.1409 249.952 83.4076 249.675C83.6776 249.398 83.8959 249.137 84.0626 248.89C84.2326 248.643 84.3176 248.432 84.3176 248.255C84.3176 248.072 84.2726 247.903 84.1826 247.75C84.0926 247.597 83.9726 247.475 83.8226 247.385C83.6726 247.295 83.5059 247.25 83.3226 247.25C83.1392 247.25 82.9709 247.295 82.8176 247.385C82.6676 247.475 82.5459 247.597 82.4526 247.75C82.3626 247.903 82.3176 248.072 82.3176 248.255H80.9376C80.9376 247.805 81.0459 247.4 81.2626 247.04C81.4826 246.68 81.7726 246.395 82.1326 246.185C82.4959 245.975 82.8926 245.87 83.3226 245.87C83.7592 245.87 84.1576 245.977 84.5176 246.19C84.8776 246.403 85.1642 246.692 85.3776 247.055C85.5909 247.415 85.6976 247.815 85.6976 248.255C85.6976 248.482 85.6626 248.702 85.5926 248.915C85.5259 249.128 85.4276 249.342 85.2976 249.555C85.1676 249.765 85.0092 249.98 84.8226 250.2C84.6392 250.417 84.4309 250.643 84.1976 250.88C83.9676 251.113 83.7192 251.36 83.4526 251.62H85.7176V253H80.9176ZM89.1045 253.13C88.7011 253.13 88.3328 253.037 87.9995 252.85C87.6661 252.66 87.3761 252.398 87.1295 252.065C86.8861 251.732 86.6978 251.347 86.5645 250.91C86.4311 250.47 86.3645 250 86.3645 249.5C86.3645 249 86.4311 248.532 86.5645 248.095C86.6978 247.655 86.8861 247.268 87.1295 246.935C87.3761 246.602 87.6661 246.342 87.9995 246.155C88.3328 245.965 88.7011 245.87 89.1045 245.87C89.5078 245.87 89.8761 245.965 90.2095 246.155C90.5428 246.342 90.8295 246.602 91.0695 246.935C91.3128 247.268 91.5011 247.655 91.6345 248.095C91.7678 248.532 91.8345 249 91.8345 249.5C91.8345 250 91.7678 250.47 91.6345 250.91C91.5011 251.347 91.3128 251.732 91.0695 252.065C90.8295 252.398 90.5428 252.66 90.2095 252.85C89.8761 253.037 89.5078 253.13 89.1045 253.13ZM89.1045 251.75C89.4345 251.75 89.7061 251.643 89.9195 251.43C90.1328 251.217 90.2895 250.938 90.3895 250.595C90.4928 250.252 90.5445 249.887 90.5445 249.5C90.5445 249.09 90.4895 248.715 90.3795 248.375C90.2728 248.035 90.1128 247.763 89.8995 247.56C89.6861 247.353 89.4211 247.25 89.1045 247.25C88.8545 247.25 88.6378 247.312 88.4545 247.435C88.2745 247.558 88.1245 247.727 88.0045 247.94C87.8878 248.153 87.7995 248.395 87.7395 248.665C87.6828 248.932 87.6545 249.21 87.6545 249.5C87.6545 249.887 87.7061 250.252 87.8095 250.595C87.9161 250.935 88.0761 251.213 88.2895 251.43C88.5061 251.643 88.7778 251.75 89.1045 251.75Z" fill="#1F2025"/>
<path opacity="0.2" d="M125.053 253V246H129.203V247.38H126.433V248.56H128.723V249.94H126.433V253H125.053ZM129.916 253V246H134.346V247.38H131.296V248.56H133.676V249.94H131.296V251.62H134.346V253H129.916ZM135.454 253V246H138.059C138.435 246 138.777 246.078 139.084 246.235C139.39 246.388 139.632 246.608 139.809 246.895C139.989 247.182 140.079 247.518 140.079 247.905C140.079 248.062 140.057 248.223 140.014 248.39C139.974 248.557 139.904 248.71 139.804 248.85C139.707 248.99 139.574 249.097 139.404 249.17C139.624 249.223 139.8 249.323 139.934 249.47C140.067 249.613 140.169 249.78 140.239 249.97C140.309 250.157 140.355 250.348 140.379 250.545C140.402 250.742 140.414 250.92 140.414 251.08C140.414 251.44 140.32 251.765 140.134 252.055C139.947 252.345 139.695 252.575 139.379 252.745C139.065 252.915 138.719 253 138.339 253H135.454ZM136.834 251.825H138.194C138.377 251.825 138.544 251.782 138.694 251.695C138.844 251.605 138.964 251.483 139.054 251.33C139.144 251.173 139.189 250.997 139.189 250.8C139.189 250.633 139.144 250.475 139.054 250.325C138.964 250.175 138.844 250.053 138.694 249.96C138.544 249.863 138.377 249.815 138.194 249.815H136.834V251.825ZM136.834 248.665H137.899C138.119 248.665 138.307 248.593 138.464 248.45C138.62 248.307 138.699 248.122 138.699 247.895C138.699 247.662 138.62 247.485 138.464 247.365C138.307 247.242 138.119 247.18 137.899 247.18H136.834V248.665ZM143.613 253V251.77C143.813 251.63 144.056 251.45 144.343 251.23C144.63 251.007 144.928 250.762 145.238 250.495C145.548 250.225 145.836 249.952 146.103 249.675C146.373 249.398 146.591 249.137 146.758 248.89C146.928 248.643 147.013 248.432 147.013 248.255C147.013 248.072 146.968 247.903 146.878 247.75C146.788 247.597 146.668 247.475 146.518 247.385C146.368 247.295 146.201 247.25 146.018 247.25C145.835 247.25 145.666 247.295 145.513 247.385C145.363 247.475 145.241 247.597 145.148 247.75C145.058 247.903 145.013 248.072 145.013 248.255H143.633C143.633 247.805 143.741 247.4 143.958 247.04C144.178 246.68 144.468 246.395 144.828 246.185C145.191 245.975 145.588 245.87 146.018 245.87C146.455 245.87 146.853 245.977 147.213 246.19C147.573 246.403 147.86 246.692 148.073 247.055C148.286 247.415 148.393 247.815 148.393 248.255C148.393 248.482 148.358 248.702 148.288 248.915C148.221 249.128 148.123 249.342 147.993 249.555C147.863 249.765 147.705 249.98 147.518 250.2C147.335 250.417 147.126 250.643 146.893 250.88C146.663 251.113 146.415 251.36 146.148 251.62H148.413V253H143.613ZM151.8 253.13C151.396 253.13 151.028 253.037 150.695 252.85C150.361 252.66 150.071 252.398 149.825 252.065C149.581 251.732 149.393 251.347 149.26 250.91C149.126 250.47 149.06 250 149.06 249.5C149.06 249 149.126 248.532 149.26 248.095C149.393 247.655 149.581 247.268 149.825 246.935C150.071 246.602 150.361 246.342 150.695 246.155C151.028 245.965 151.396 245.87 151.8 245.87C152.203 245.87 152.571 245.965 152.905 246.155C153.238 246.342 153.525 246.602 153.765 246.935C154.008 247.268 154.196 247.655 154.33 248.095C154.463 248.532 154.53 249 154.53 249.5C154.53 250 154.463 250.47 154.33 250.91C154.196 251.347 154.008 251.732 153.765 252.065C153.525 252.398 153.238 252.66 152.905 252.85C152.571 253.037 152.203 253.13 151.8 253.13ZM151.8 251.75C152.13 251.75 152.401 251.643 152.615 251.43C152.828 251.217 152.985 250.938 153.085 250.595C153.188 250.252 153.24 249.887 153.24 249.5C153.24 249.09 153.185 248.715 153.075 248.375C152.968 248.035 152.808 247.763 152.595 247.56C152.381 247.353 152.116 247.25 151.8 247.25C151.55 247.25 151.333 247.312 151.15 247.435C150.97 247.558 150.82 247.727 150.7 247.94C150.583 248.153 150.495 248.395 150.435 248.665C150.378 248.932 150.35 249.21 150.35 249.5C150.35 249.887 150.401 250.252 150.505 250.595C150.611 250.935 150.771 251.213 150.985 251.43C151.201 251.643 151.473 251.75 151.8 251.75ZM155.234 253V251.77C155.434 251.63 155.677 251.45 155.964 251.23C156.251 251.007 156.549 250.762 156.859 250.495C157.169 250.225 157.457 249.952 157.724 249.675C157.994 249.398 158.212 249.137 158.379 248.89C158.549 248.643 158.634 248.432 158.634 248.255C158.634 248.072 158.589 247.903 158.499 247.75C158.409 247.597 158.289 247.475 158.139 247.385C157.989 247.295 157.822 247.25 157.639 247.25C157.456 247.25 157.287 247.295 157.134 247.385C156.984 247.475 156.862 247.597 156.769 247.75C156.679 247.903 156.634 248.072 156.634 248.255H155.254C155.254 247.805 155.362 247.4 155.579 247.04C155.799 246.68 156.089 246.395 156.449 246.185C156.812 245.975 157.209 245.87 157.639 245.87C158.076 245.87 158.474 245.977 158.834 246.19C159.194 246.403 159.481 246.692 159.694 247.055C159.907 247.415 160.014 247.815 160.014 248.255C160.014 248.482 159.979 248.702 159.909 248.915C159.842 249.128 159.744 249.342 159.614 249.555C159.484 249.765 159.326 249.98 159.139 250.2C158.956 250.417 158.747 250.643 158.514 250.88C158.284 251.113 158.036 251.36 157.769 251.62H160.034V253H155.234ZM163.421 253.13C163.018 253.13 162.649 253.037 162.316 252.85C161.983 252.66 161.693 252.398 161.446 252.065C161.203 251.732 161.014 251.347 160.881 250.91C160.748 250.47 160.681 250 160.681 249.5C160.681 249 160.748 248.532 160.881 248.095C161.014 247.655 161.203 247.268 161.446 246.935C161.693 246.602 161.983 246.342 162.316 246.155C162.649 245.965 163.018 245.87 163.421 245.87C163.824 245.87 164.193 245.965 164.526 246.155C164.859 246.342 165.146 246.602 165.386 246.935C165.629 247.268 165.818 247.655 165.951 248.095C166.084 248.532 166.151 249 166.151 249.5C166.151 250 166.084 250.47 165.951 250.91C165.818 251.347 165.629 251.732 165.386 252.065C165.146 252.398 164.859 252.66 164.526 252.85C164.193 253.037 163.824 253.13 163.421 253.13ZM163.421 251.75C163.751 251.75 164.023 251.643 164.236 251.43C164.449 251.217 164.606 250.938 164.706 250.595C164.809 250.252 164.861 249.887 164.861 249.5C164.861 249.09 164.806 248.715 164.696 248.375C164.589 248.035 164.429 247.763 164.216 247.56C164.003 247.353 163.738 247.25 163.421 247.25C163.171 247.25 162.954 247.312 162.771 247.435C162.591 247.558 162.441 247.727 162.321 247.94C162.204 248.153 162.116 248.395 162.056 248.665C161.999 248.932 161.971 249.21 161.971 249.5C161.971 249.887 162.023 250.252 162.126 250.595C162.233 250.935 162.393 251.213 162.606 251.43C162.823 251.643 163.094 251.75 163.421 251.75Z" fill="#1F2025"/>
<path opacity="0.2" d="M197.481 253L198.841 246H200.006L201.631 250.285L203.261 246H204.426L205.786 253H204.376L203.601 248.985L202.106 252.93H201.156L199.666 248.985L198.886 253H197.481ZM208.756 246H210.326L212.866 253H211.401L210.981 251.84H208.101L207.681 253H206.216L208.756 246ZM208.606 250.46H210.476L209.536 247.895L208.606 250.46ZM213.682 253V246H216.462C216.842 246 217.185 246.097 217.492 246.29C217.802 246.48 218.047 246.737 218.227 247.06C218.41 247.38 218.502 247.735 218.502 248.125C218.502 248.432 218.449 248.717 218.342 248.98C218.235 249.24 218.085 249.468 217.892 249.665C217.699 249.862 217.474 250.015 217.217 250.125L218.882 253H217.292L215.697 250.25H215.062V253H213.682ZM215.062 248.87H216.297C216.447 248.87 216.584 248.833 216.707 248.76C216.834 248.683 216.934 248.582 217.007 248.455C217.084 248.325 217.122 248.182 217.122 248.025C217.122 247.872 217.084 247.732 217.007 247.605C216.934 247.475 216.834 247.372 216.707 247.295C216.584 247.218 216.447 247.18 216.297 247.18H215.062V248.87ZM222.095 253V251.77C222.295 251.63 222.539 251.45 222.825 251.23C223.112 251.007 223.41 250.762 223.72 250.495C224.03 250.225 224.319 249.952 224.585 249.675C224.855 249.398 225.074 249.137 225.24 248.89C225.41 248.643 225.495 248.432 225.495 248.255C225.495 248.072 225.45 247.903 225.36 247.75C225.27 247.597 225.15 247.475 225 247.385C224.85 247.295 224.684 247.25 224.5 247.25C224.317 247.25 224.149 247.295 223.995 247.385C223.845 247.475 223.724 247.597 223.63 247.75C223.54 247.903 223.495 248.072 223.495 248.255H222.115C222.115 247.805 222.224 247.4 222.44 247.04C222.66 246.68 222.95 246.395 223.31 246.185C223.674 245.975 224.07 245.87 224.5 245.87C224.937 245.87 225.335 245.977 225.695 246.19C226.055 246.403 226.342 246.692 226.555 247.055C226.769 247.415 226.875 247.815 226.875 248.255C226.875 248.482 226.84 248.702 226.77 248.915C226.704 249.128 226.605 249.342 226.475 249.555C226.345 249.765 226.187 249.98 226 250.2C225.817 250.417 225.609 250.643 225.375 250.88C225.145 251.113 224.897 251.36 224.63 251.62H226.895V253H222.095ZM230.282 253.13C229.879 253.13 229.511 253.037 229.177 252.85C228.844 252.66 228.554 252.398 228.307 252.065C228.064 251.732 227.876 251.347 227.742 250.91C227.609 250.47 227.542 250 227.542 249.5C227.542 249 227.609 248.532 227.742 248.095C227.876 247.655 228.064 247.268 228.307 246.935C228.554 246.602 228.844 246.342 229.177 246.155C229.511 245.965 229.879 245.87 230.282 245.87C230.686 245.87 231.054 245.965 231.387 246.155C231.721 246.342 232.007 246.602 232.247 246.935C232.491 247.268 232.679 247.655 232.812 248.095C232.946 248.532 233.012 249 233.012 249.5C233.012 250 232.946 250.47 232.812 250.91C232.679 251.347 232.491 251.732 232.247 252.065C232.007 252.398 231.721 252.66 231.387 252.85C231.054 253.037 230.686 253.13 230.282 253.13ZM230.282 251.75C230.612 251.75 230.884 251.643 231.097 251.43C231.311 251.217 231.467 250.938 231.567 250.595C231.671 250.252 231.722 249.887 231.722 249.5C231.722 249.09 231.667 248.715 231.557 248.375C231.451 248.035 231.291 247.763 231.077 247.56C230.864 247.353 230.599 247.25 230.282 247.25C230.032 247.25 229.816 247.312 229.632 247.435C229.452 247.558 229.302 247.727 229.182 247.94C229.066 248.153 228.977 248.395 228.917 248.665C228.861 248.932 228.832 249.21 228.832 249.5C228.832 249.887 228.884 250.252 228.987 250.595C229.094 250.935 229.254 251.213 229.467 251.43C229.684 251.643 229.956 251.75 230.282 251.75ZM233.716 253V251.77C233.916 251.63 234.16 251.45 234.446 251.23C234.733 251.007 235.031 250.762 235.341 250.495C235.651 250.225 235.94 249.952 236.206 249.675C236.476 249.398 236.695 249.137 236.861 248.89C237.031 248.643 237.116 248.432 237.116 248.255C237.116 248.072 237.071 247.903 236.981 247.75C236.891 247.597 236.771 247.475 236.621 247.385C236.471 247.295 236.305 247.25 236.121 247.25C235.938 247.25 235.77 247.295 235.616 247.385C235.466 247.475 235.345 247.597 235.251 247.75C235.161 247.903 235.116 248.072 235.116 248.255H233.736C233.736 247.805 233.845 247.4 234.061 247.04C234.281 246.68 234.571 246.395 234.931 246.185C235.295 245.975 235.691 245.87 236.121 245.87C236.558 245.87 236.956 245.977 237.316 246.19C237.676 246.403 237.963 246.692 238.176 247.055C238.39 247.415 238.496 247.815 238.496 248.255C238.496 248.482 238.461 248.702 238.391 248.915C238.325 249.128 238.226 249.342 238.096 249.555C237.966 249.765 237.808 249.98 237.621 250.2C237.438 250.417 237.23 250.643 236.996 250.88C236.766 251.113 236.518 251.36 236.251 251.62H238.516V253H233.716ZM241.903 253.13C241.5 253.13 241.132 253.037 240.798 252.85C240.465 252.66 240.175 252.398 239.928 252.065C239.685 251.732 239.497 251.347 239.363 250.91C239.23 250.47 239.163 250 239.163 249.5C239.163 249 239.23 248.532 239.363 248.095C239.497 247.655 239.685 247.268 239.928 246.935C240.175 246.602 240.465 246.342 240.798 246.155C241.132 245.965 241.5 245.87 241.903 245.87C242.307 245.87 242.675 245.965 243.008 246.155C243.342 246.342 243.628 246.602 243.868 246.935C244.112 247.268 244.3 247.655 244.433 248.095C244.567 248.532 244.633 249 244.633 249.5C244.633 250 244.567 250.47 244.433 250.91C244.3 251.347 244.112 251.732 243.868 252.065C243.628 252.398 243.342 252.66 243.008 252.85C242.675 253.037 242.307 253.13 241.903 253.13ZM241.903 251.75C242.233 251.75 242.505 251.643 242.718 251.43C242.932 251.217 243.088 250.938 243.188 250.595C243.292 250.252 243.343 249.887 243.343 249.5C243.343 249.09 243.288 248.715 243.178 248.375C243.072 248.035 242.912 247.763 242.698 247.56C242.485 247.353 242.22 247.25 241.903 247.25C241.653 247.25 241.437 247.312 241.253 247.435C241.073 247.558 240.923 247.727 240.803 247.94C240.687 248.153 240.598 248.395 240.538 248.665C240.482 248.932 240.453 249.21 240.453 249.5C240.453 249.887 240.505 250.252 240.608 250.595C240.715 250.935 240.875 251.213 241.088 251.43C241.305 251.643 241.577 251.75 241.903 251.75Z" fill="#1F2025"/>
<path opacity="0.2" d="M276.984 246H278.554L281.094 253H279.629L279.209 251.84H276.329L275.909 253H274.444L276.984 246ZM276.834 250.46H278.704L277.764 247.895L276.834 250.46ZM281.91 253V246H284.49C284.873 246 285.218 246.097 285.525 246.29C285.835 246.483 286.081 246.742 286.265 247.065C286.448 247.385 286.54 247.738 286.54 248.125C286.54 248.518 286.446 248.877 286.26 249.2C286.073 249.52 285.823 249.775 285.51 249.965C285.2 250.155 284.86 250.25 284.49 250.25H283.29V253H281.91ZM283.29 248.87H284.335C284.488 248.87 284.626 248.833 284.75 248.76C284.873 248.683 284.971 248.582 285.045 248.455C285.121 248.325 285.16 248.182 285.16 248.025C285.16 247.872 285.121 247.732 285.045 247.605C284.971 247.475 284.873 247.372 284.75 247.295C284.626 247.218 284.488 247.18 284.335 247.18H283.29V248.87ZM287.427 253V246H290.207C290.587 246 290.93 246.097 291.237 246.29C291.547 246.48 291.792 246.737 291.972 247.06C292.155 247.38 292.247 247.735 292.247 248.125C292.247 248.432 292.194 248.717 292.087 248.98C291.98 249.24 291.83 249.468 291.637 249.665C291.444 249.862 291.219 250.015 290.962 250.125L292.627 253H291.037L289.442 250.25H288.807V253H287.427ZM288.807 248.87H290.042C290.192 248.87 290.329 248.833 290.452 248.76C290.579 248.683 290.679 248.582 290.752 248.455C290.829 248.325 290.867 248.182 290.867 248.025C290.867 247.872 290.829 247.732 290.752 247.605C290.679 247.475 290.579 247.372 290.452 247.295C290.329 247.218 290.192 247.18 290.042 247.18H288.807V248.87ZM295.84 253V251.77C296.04 251.63 296.284 251.45 296.57 251.23C296.857 251.007 297.155 250.762 297.465 250.495C297.775 250.225 298.064 249.952 298.33 249.675C298.6 249.398 298.819 249.137 298.985 248.89C299.155 248.643 299.24 248.432 299.24 248.255C299.24 248.072 299.195 247.903 299.105 247.75C299.015 247.597 298.895 247.475 298.745 247.385C298.595 247.295 298.429 247.25 298.245 247.25C298.062 247.25 297.894 247.295 297.74 247.385C297.59 247.475 297.469 247.597 297.375 247.75C297.285 247.903 297.24 248.072 297.24 248.255H295.86C295.86 247.805 295.969 247.4 296.185 247.04C296.405 246.68 296.695 246.395 297.055 246.185C297.419 245.975 297.815 245.87 298.245 245.87C298.682 245.87 299.08 245.977 299.44 246.19C299.8 246.403 300.087 246.692 300.3 247.055C300.514 247.415 300.62 247.815 300.62 248.255C300.62 248.482 300.585 248.702 300.515 248.915C300.449 249.128 300.35 249.342 300.22 249.555C300.09 249.765 299.932 249.98 299.745 250.2C299.562 250.417 299.354 250.643 299.12 250.88C298.89 251.113 298.642 251.36 298.375 251.62H300.64V253H295.84ZM304.027 253.13C303.624 253.13 303.256 253.037 302.922 252.85C302.589 252.66 302.299 252.398 302.052 252.065C301.809 251.732 301.621 251.347 301.487 250.91C301.354 250.47 301.287 250 301.287 249.5C301.287 249 301.354 248.532 301.487 248.095C301.621 247.655 301.809 247.268 302.052 246.935C302.299 246.602 302.589 246.342 302.922 246.155C303.256 245.965 303.624 245.87 304.027 245.87C304.431 245.87 304.799 245.965 305.132 246.155C305.466 246.342 305.752 246.602 305.992 246.935C306.236 247.268 306.424 247.655 306.557 248.095C306.691 248.532 306.757 249 306.757 249.5C306.757 250 306.691 250.47 306.557 250.91C306.424 251.347 306.236 251.732 305.992 252.065C305.752 252.398 305.466 252.66 305.132 252.85C304.799 253.037 304.431 253.13 304.027 253.13ZM304.027 251.75C304.357 251.75 304.629 251.643 304.842 251.43C305.056 251.217 305.212 250.938 305.312 250.595C305.416 250.252 305.467 249.887 305.467 249.5C305.467 249.09 305.412 248.715 305.302 248.375C305.196 248.035 305.036 247.763 304.822 247.56C304.609 247.353 304.344 247.25 304.027 247.25C303.777 247.25 303.561 247.312 303.377 247.435C303.197 247.558 303.047 247.727 302.927 247.94C302.811 248.153 302.722 248.395 302.662 248.665C302.606 248.932 302.577 249.21 302.577 249.5C302.577 249.887 302.629 250.252 302.732 250.595C302.839 250.935 302.999 251.213 303.212 251.43C303.429 251.643 303.701 251.75 304.027 251.75ZM307.462 253V251.77C307.662 251.63 307.905 251.45 308.192 251.23C308.478 251.007 308.777 250.762 309.087 250.495C309.397 250.225 309.685 249.952 309.952 249.675C310.222 249.398 310.44 249.137 310.607 248.89C310.777 248.643 310.862 248.432 310.862 248.255C310.862 248.072 310.817 247.903 310.727 247.75C310.637 247.597 310.517 247.475 310.367 247.385C310.217 247.295 310.05 247.25 309.867 247.25C309.683 247.25 309.515 247.295 309.362 247.385C309.212 247.475 309.09 247.597 308.997 247.75C308.907 247.903 308.862 248.072 308.862 248.255H307.482C307.482 247.805 307.59 247.4 307.807 247.04C308.027 246.68 308.317 246.395 308.677 246.185C309.04 245.975 309.437 245.87 309.867 245.87C310.303 245.87 310.702 245.977 311.062 246.19C311.422 246.403 311.708 246.692 311.922 247.055C312.135 247.415 312.242 247.815 312.242 248.255C312.242 248.482 312.207 248.702 312.137 248.915C312.07 249.128 311.972 249.342 311.842 249.555C311.712 249.765 311.553 249.98 311.367 250.2C311.183 250.417 310.975 250.643 310.742 250.88C310.512 251.113 310.263 251.36 309.997 251.62H312.262V253H307.462ZM315.648 253.13C315.245 253.13 314.877 253.037 314.543 252.85C314.21 252.66 313.92 252.398 313.673 252.065C313.43 251.732 313.242 251.347 313.108 250.91C312.975 250.47 312.908 250 312.908 249.5C312.908 249 312.975 248.532 313.108 248.095C313.242 247.655 313.43 247.268 313.673 246.935C313.92 246.602 314.21 246.342 314.543 246.155C314.877 245.965 315.245 245.87 315.648 245.87C316.052 245.87 316.42 245.965 316.753 246.155C317.087 246.342 317.373 246.602 317.613 246.935C317.857 247.268 318.045 247.655 318.178 248.095C318.312 248.532 318.378 249 318.378 249.5C318.378 250 318.312 250.47 318.178 250.91C318.045 251.347 317.857 251.732 317.613 252.065C317.373 252.398 317.087 252.66 316.753 252.85C316.42 253.037 316.052 253.13 315.648 253.13ZM315.648 251.75C315.978 251.75 316.25 251.643 316.463 251.43C316.677 251.217 316.833 250.938 316.933 250.595C317.037 250.252 317.088 249.887 317.088 249.5C317.088 249.09 317.033 248.715 316.923 248.375C316.817 248.035 316.657 247.763 316.443 247.56C316.23 247.353 315.965 247.25 315.648 247.25C315.398 247.25 315.182 247.312 314.998 247.435C314.818 247.558 314.668 247.727 314.548 247.94C314.432 248.153 314.343 248.395 314.283 248.665C314.227 248.932 314.198 249.21 314.198 249.5C314.198 249.887 314.25 250.252 314.353 250.595C314.46 250.935 314.62 251.213 314.833 251.43C315.05 251.643 315.322 251.75 315.648 251.75Z" fill="#1F2025"/>
<path opacity="0.2" d="M348.698 253L350.058 246H351.223L352.848 250.285L354.478 246H355.643L357.003 253H355.593L354.818 248.985L353.323 252.93H352.373L350.883 248.985L350.103 253H348.698ZM359.973 246H361.543L364.083 253H362.618L362.198 251.84H359.318L358.898 253H357.433L359.973 246ZM359.823 250.46H361.693L360.753 247.895L359.823 250.46ZM367.968 246H369.598L367.178 249.845V253H365.798V249.845L363.378 246H365.008L366.488 248.345L367.968 246ZM372.697 253V251.77C372.897 251.63 373.14 251.45 373.427 251.23C373.714 251.007 374.012 250.762 374.322 250.495C374.632 250.225 374.92 249.952 375.187 249.675C375.457 249.398 375.675 249.137 375.842 248.89C376.012 248.643 376.097 248.432 376.097 248.255C376.097 248.072 376.052 247.903 375.962 247.75C375.872 247.597 375.752 247.475 375.602 247.385C375.452 247.295 375.285 247.25 375.102 247.25C374.919 247.25 374.75 247.295 374.597 247.385C374.447 247.475 374.325 247.597 374.232 247.75C374.142 247.903 374.097 248.072 374.097 248.255H372.717C372.717 247.805 372.825 247.4 373.042 247.04C373.262 246.68 373.552 246.395 373.912 246.185C374.275 245.975 374.672 245.87 375.102 245.87C375.539 245.87 375.937 245.977 376.297 246.19C376.657 246.403 376.944 246.692 377.157 247.055C377.37 247.415 377.477 247.815 377.477 248.255C377.477 248.482 377.442 248.702 377.372 248.915C377.305 249.128 377.207 249.342 377.077 249.555C376.947 249.765 376.789 249.98 376.602 250.2C376.419 250.417 376.21 250.643 375.977 250.88C375.747 251.113 375.499 251.36 375.232 251.62H377.497V253H372.697ZM380.884 253.13C380.48 253.13 380.112 253.037 379.779 252.85C379.445 252.66 379.155 252.398 378.909 252.065C378.665 251.732 378.477 251.347 378.344 250.91C378.21 250.47 378.144 250 378.144 249.5C378.144 249 378.21 248.532 378.344 248.095C378.477 247.655 378.665 247.268 378.909 246.935C379.155 246.602 379.445 246.342 379.779 246.155C380.112 245.965 380.48 245.87 380.884 245.87C381.287 245.87 381.655 245.965 381.989 246.155C382.322 246.342 382.609 246.602 382.849 246.935C383.092 247.268 383.28 247.655 383.414 248.095C383.547 248.532 383.614 249 383.614 249.5C383.614 250 383.547 250.47 383.414 250.91C383.28 251.347 383.092 251.732 382.849 252.065C382.609 252.398 382.322 252.66 381.989 252.85C381.655 253.037 381.287 253.13 380.884 253.13ZM380.884 251.75C381.214 251.75 381.485 251.643 381.699 251.43C381.912 251.217 382.069 250.938 382.169 250.595C382.272 250.252 382.324 249.887 382.324 249.5C382.324 249.09 382.269 248.715 382.159 248.375C382.052 248.035 381.892 247.763 381.679 247.56C381.465 247.353 381.2 247.25 380.884 247.25C380.634 247.25 380.417 247.312 380.234 247.435C380.054 247.558 379.904 247.727 379.784 247.94C379.667 248.153 379.579 248.395 379.519 248.665C379.462 248.932 379.434 249.21 379.434 249.5C379.434 249.887 379.485 250.252 379.589 250.595C379.695 250.935 379.855 251.213 380.069 251.43C380.285 251.643 380.557 251.75 380.884 251.75ZM384.318 253V251.77C384.518 251.63 384.761 251.45 385.048 251.23C385.335 251.007 385.633 250.762 385.943 250.495C386.253 250.225 386.541 249.952 386.808 249.675C387.078 249.398 387.296 249.137 387.463 248.89C387.633 248.643 387.718 248.432 387.718 248.255C387.718 248.072 387.673 247.903 387.583 247.75C387.493 247.597 387.373 247.475 387.223 247.385C387.073 247.295 386.906 247.25 386.723 247.25C386.54 247.25 386.371 247.295 386.218 247.385C386.068 247.475 385.946 247.597 385.853 247.75C385.763 247.903 385.718 248.072 385.718 248.255H384.338C384.338 247.805 384.446 247.4 384.663 247.04C384.883 246.68 385.173 246.395 385.533 246.185C385.896 245.975 386.293 245.87 386.723 245.87C387.16 245.87 387.558 245.977 387.918 246.19C388.278 246.403 388.565 246.692 388.778 247.055C388.991 247.415 389.098 247.815 389.098 248.255C389.098 248.482 389.063 248.702 388.993 248.915C388.926 249.128 388.828 249.342 388.698 249.555C388.568 249.765 388.41 249.98 388.223 250.2C388.04 250.417 387.831 250.643 387.598 250.88C387.368 251.113 387.12 251.36 386.853 251.62H389.118V253H384.318ZM392.505 253.13C392.102 253.13 391.733 253.037 391.4 252.85C391.067 252.66 390.777 252.398 390.53 252.065C390.287 251.732 390.098 251.347 389.965 250.91C389.832 250.47 389.765 250 389.765 249.5C389.765 249 389.832 248.532 389.965 248.095C390.098 247.655 390.287 247.268 390.53 246.935C390.777 246.602 391.067 246.342 391.4 246.155C391.733 245.965 392.102 245.87 392.505 245.87C392.908 245.87 393.277 245.965 393.61 246.155C393.943 246.342 394.23 246.602 394.47 246.935C394.713 247.268 394.902 247.655 395.035 248.095C395.168 248.532 395.235 249 395.235 249.5C395.235 250 395.168 250.47 395.035 250.91C394.902 251.347 394.713 251.732 394.47 252.065C394.23 252.398 393.943 252.66 393.61 252.85C393.277 253.037 392.908 253.13 392.505 253.13ZM392.505 251.75C392.835 251.75 393.107 251.643 393.32 251.43C393.533 251.217 393.69 250.938 393.79 250.595C393.893 250.252 393.945 249.887 393.945 249.5C393.945 249.09 393.89 248.715 393.78 248.375C393.673 248.035 393.513 247.763 393.3 247.56C393.087 247.353 392.822 247.25 392.505 247.25C392.255 247.25 392.038 247.312 391.855 247.435C391.675 247.558 391.525 247.727 391.405 247.94C391.288 248.153 391.2 248.395 391.14 248.665C391.083 248.932 391.055 249.21 391.055 249.5C391.055 249.887 391.107 250.252 391.21 250.595C391.317 250.935 391.477 251.213 391.69 251.43C391.907 251.643 392.178 251.75 392.505 251.75Z" fill="#1F2025"/>
<path opacity="0.2" d="M427.082 253.13C426.815 253.13 426.554 253.085 426.297 252.995C426.044 252.905 425.815 252.772 425.612 252.595L426.497 251.535C426.56 251.585 426.64 251.633 426.737 251.68C426.834 251.727 426.949 251.75 427.082 251.75C427.252 251.75 427.405 251.708 427.542 251.625C427.682 251.538 427.794 251.425 427.877 251.285C427.96 251.142 428.002 250.987 428.002 250.82V246H429.382V250.82C429.382 251.243 429.279 251.63 429.072 251.98C428.865 252.327 428.587 252.605 428.237 252.815C427.89 253.025 427.505 253.13 427.082 253.13ZM433.412 253.13C432.852 253.13 432.359 252.993 431.932 252.72C431.509 252.447 431.177 252.08 430.937 251.62C430.701 251.157 430.582 250.643 430.582 250.08V246H431.962V250.08C431.962 250.383 432.019 250.662 432.132 250.915C432.246 251.168 432.411 251.372 432.627 251.525C432.844 251.675 433.106 251.75 433.412 251.75C433.722 251.75 433.984 251.675 434.197 251.525C434.414 251.375 434.577 251.173 434.687 250.92C434.797 250.667 434.852 250.387 434.852 250.08V246H436.232V250.08C436.232 250.503 436.164 250.9 436.027 251.27C435.894 251.637 435.702 251.96 435.452 252.24C435.202 252.52 434.904 252.738 434.557 252.895C434.214 253.052 433.832 253.13 433.412 253.13ZM437.291 253V246H438.781L441.511 250.505V246H442.891V253H441.401L438.671 248.495V253H437.291ZM446.291 253V251.77C446.491 251.63 446.734 251.45 447.021 251.23C447.307 251.007 447.606 250.762 447.916 250.495C448.226 250.225 448.514 249.952 448.781 249.675C449.051 249.398 449.269 249.137 449.436 248.89C449.606 248.643 449.691 248.432 449.691 248.255C449.691 248.072 449.646 247.903 449.556 247.75C449.466 247.597 449.346 247.475 449.196 247.385C449.046 247.295 448.879 247.25 448.696 247.25C448.512 247.25 448.344 247.295 448.191 247.385C448.041 247.475 447.919 247.597 447.826 247.75C447.736 247.903 447.691 248.072 447.691 248.255H446.311C446.311 247.805 446.419 247.4 446.636 247.04C446.856 246.68 447.146 246.395 447.506 246.185C447.869 245.975 448.266 245.87 448.696 245.87C449.132 245.87 449.531 245.977 449.891 246.19C450.251 246.403 450.537 246.692 450.751 247.055C450.964 247.415 451.071 247.815 451.071 248.255C451.071 248.482 451.036 248.702 450.966 248.915C450.899 249.128 450.801 249.342 450.671 249.555C450.541 249.765 450.382 249.98 450.196 250.2C450.012 250.417 449.804 250.643 449.571 250.88C449.341 251.113 449.092 251.36 448.826 251.62H451.091V253H446.291ZM454.478 253.13C454.074 253.13 453.706 253.037 453.373 252.85C453.039 252.66 452.749 252.398 452.503 252.065C452.259 251.732 452.071 251.347 451.938 250.91C451.804 250.47 451.738 250 451.738 249.5C451.738 249 451.804 248.532 451.938 248.095C452.071 247.655 452.259 247.268 452.503 246.935C452.749 246.602 453.039 246.342 453.373 246.155C453.706 245.965 454.074 245.87 454.478 245.87C454.881 245.87 455.249 245.965 455.583 246.155C455.916 246.342 456.203 246.602 456.443 246.935C456.686 247.268 456.874 247.655 457.008 248.095C457.141 248.532 457.208 249 457.208 249.5C457.208 250 457.141 250.47 457.008 250.91C456.874 251.347 456.686 251.732 456.443 252.065C456.203 252.398 455.916 252.66 455.583 252.85C455.249 253.037 454.881 253.13 454.478 253.13ZM454.478 251.75C454.808 251.75 455.079 251.643 455.293 251.43C455.506 251.217 455.663 250.938 455.763 250.595C455.866 250.252 455.918 249.887 455.918 249.5C455.918 249.09 455.863 248.715 455.753 248.375C455.646 248.035 455.486 247.763 455.273 247.56C455.059 247.353 454.794 247.25 454.478 247.25C454.228 247.25 454.011 247.312 453.828 247.435C453.648 247.558 453.498 247.727 453.378 247.94C453.261 248.153 453.173 248.395 453.113 248.665C453.056 248.932 453.028 249.21 453.028 249.5C453.028 249.887 453.079 250.252 453.183 250.595C453.289 250.935 453.449 251.213 453.663 251.43C453.879 251.643 454.151 251.75 454.478 251.75ZM457.912 253V251.77C458.112 251.63 458.355 251.45 458.642 251.23C458.928 251.007 459.227 250.762 459.537 250.495C459.847 250.225 460.135 249.952 460.402 249.675C460.672 249.398 460.89 249.137 461.057 248.89C461.227 248.643 461.312 248.432 461.312 248.255C461.312 248.072 461.267 247.903 461.177 247.75C461.087 247.597 460.967 247.475 460.817 247.385C460.667 247.295 460.5 247.25 460.317 247.25C460.133 247.25 459.965 247.295 459.812 247.385C459.662 247.475 459.54 247.597 459.447 247.75C459.357 247.903 459.312 248.072 459.312 248.255H457.932C457.932 247.805 458.04 247.4 458.257 247.04C458.477 246.68 458.767 246.395 459.127 246.185C459.49 245.975 459.887 245.87 460.317 245.87C460.753 245.87 461.152 245.977 461.512 246.19C461.872 246.403 462.158 246.692 462.372 247.055C462.585 247.415 462.692 247.815 462.692 248.255C462.692 248.482 462.657 248.702 462.587 248.915C462.52 249.128 462.422 249.342 462.292 249.555C462.162 249.765 462.003 249.98 461.817 250.2C461.633 250.417 461.425 250.643 461.192 250.88C460.962 251.113 460.713 251.36 460.447 251.62H462.712V253H457.912ZM466.099 253.13C465.695 253.13 465.327 253.037 464.994 252.85C464.66 252.66 464.37 252.398 464.124 252.065C463.88 251.732 463.692 251.347 463.559 250.91C463.425 250.47 463.359 250 463.359 249.5C463.359 249 463.425 248.532 463.559 248.095C463.692 247.655 463.88 247.268 464.124 246.935C464.37 246.602 464.66 246.342 464.994 246.155C465.327 245.965 465.695 245.87 466.099 245.87C466.502 245.87 466.87 245.965 467.204 246.155C467.537 246.342 467.824 246.602 468.064 246.935C468.307 247.268 468.495 247.655 468.629 248.095C468.762 248.532 468.829 249 468.829 249.5C468.829 250 468.762 250.47 468.629 250.91C468.495 251.347 468.307 251.732 468.064 252.065C467.824 252.398 467.537 252.66 467.204 252.85C466.87 253.037 466.502 253.13 466.099 253.13ZM466.099 251.75C466.429 251.75 466.7 251.643 466.914 251.43C467.127 251.217 467.284 250.938 467.384 250.595C467.487 250.252 467.539 249.887 467.539 249.5C467.539 249.09 467.484 248.715 467.374 248.375C467.267 248.035 467.107 247.763 466.894 247.56C466.68 247.353 466.415 247.25 466.099 247.25C465.849 247.25 465.632 247.312 465.449 247.435C465.269 247.558 465.119 247.727 464.999 247.94C464.882 248.153 464.794 248.395 464.734 248.665C464.677 248.932 464.649 249.21 464.649 249.5C464.649 249.887 464.7 250.252 464.804 250.595C464.91 250.935 465.07 251.213 465.284 251.43C465.5 251.643 465.772 251.75 466.099 251.75Z" fill="#1F2025"/>
<path opacity="0.2" d="M503.284 253.13C503.018 253.13 502.756 253.085 502.499 252.995C502.246 252.905 502.018 252.772 501.814 252.595L502.699 251.535C502.763 251.585 502.843 251.633 502.939 251.68C503.036 251.727 503.151 251.75 503.284 251.75C503.454 251.75 503.608 251.708 503.744 251.625C503.884 251.538 503.996 251.425 504.079 251.285C504.163 251.142 504.204 250.987 504.204 250.82V246H505.584V250.82C505.584 251.243 505.481 251.63 505.274 251.98C505.068 252.327 504.789 252.605 504.439 252.815C504.093 253.025 503.708 253.13 503.284 253.13ZM509.615 253.13C509.055 253.13 508.561 252.993 508.135 252.72C507.711 252.447 507.38 252.08 507.14 251.62C506.903 251.157 506.785 250.643 506.785 250.08V246H508.165V250.08C508.165 250.383 508.221 250.662 508.335 250.915C508.448 251.168 508.613 251.372 508.83 251.525C509.046 251.675 509.308 251.75 509.615 251.75C509.925 251.75 510.186 251.675 510.4 251.525C510.616 251.375 510.78 251.173 510.89 250.92C511 250.667 511.055 250.387 511.055 250.08V246H512.435V250.08C512.435 250.503 512.366 250.9 512.23 251.27C512.096 251.637 511.905 251.96 511.655 252.24C511.405 252.52 511.106 252.738 510.76 252.895C510.416 253.052 510.035 253.13 509.615 253.13ZM513.494 253V246H514.874V251.62H517.694V253H513.494ZM520.999 253V251.77C521.199 251.63 521.442 251.45 521.729 251.23C522.015 251.007 522.314 250.762 522.624 250.495C522.934 250.225 523.222 249.952 523.489 249.675C523.759 249.398 523.977 249.137 524.144 248.89C524.314 248.643 524.399 248.432 524.399 248.255C524.399 248.072 524.354 247.903 524.264 247.75C524.174 247.597 524.054 247.475 523.904 247.385C523.754 247.295 523.587 247.25 523.404 247.25C523.22 247.25 523.052 247.295 522.899 247.385C522.749 247.475 522.627 247.597 522.534 247.75C522.444 247.903 522.399 248.072 522.399 248.255H521.019C521.019 247.805 521.127 247.4 521.344 247.04C521.564 246.68 521.854 246.395 522.214 246.185C522.577 245.975 522.974 245.87 523.404 245.87C523.84 245.87 524.239 245.977 524.599 246.19C524.959 246.403 525.245 246.692 525.459 247.055C525.672 247.415 525.779 247.815 525.779 248.255C525.779 248.482 525.744 248.702 525.674 248.915C525.607 249.128 525.509 249.342 525.379 249.555C525.249 249.765 525.09 249.98 524.904 250.2C524.72 250.417 524.512 250.643 524.279 250.88C524.049 251.113 523.8 251.36 523.534 251.62H525.799V253H520.999ZM529.186 253.13C528.782 253.13 528.414 253.037 528.081 252.85C527.747 252.66 527.457 252.398 527.211 252.065C526.967 251.732 526.779 251.347 526.646 250.91C526.512 250.47 526.446 250 526.446 249.5C526.446 249 526.512 248.532 526.646 248.095C526.779 247.655 526.967 247.268 527.211 246.935C527.457 246.602 527.747 246.342 528.081 246.155C528.414 245.965 528.782 245.87 529.186 245.87C529.589 245.87 529.957 245.965 530.291 246.155C530.624 246.342 530.911 246.602 531.151 246.935C531.394 247.268 531.582 247.655 531.716 248.095C531.849 248.532 531.916 249 531.916 249.5C531.916 250 531.849 250.47 531.716 250.91C531.582 251.347 531.394 251.732 531.151 252.065C530.911 252.398 530.624 252.66 530.291 252.85C529.957 253.037 529.589 253.13 529.186 253.13ZM529.186 251.75C529.516 251.75 529.787 251.643 530.001 251.43C530.214 251.217 530.371 250.938 530.471 250.595C530.574 250.252 530.626 249.887 530.626 249.5C530.626 249.09 530.571 248.715 530.461 248.375C530.354 248.035 530.194 247.763 529.981 247.56C529.767 247.353 529.502 247.25 529.186 247.25C528.936 247.25 528.719 247.312 528.536 247.435C528.356 247.558 528.206 247.727 528.086 247.94C527.969 248.153 527.881 248.395 527.821 248.665C527.764 248.932 527.736 249.21 527.736 249.5C527.736 249.887 527.787 250.252 527.891 250.595C527.997 250.935 528.157 251.213 528.371 251.43C528.587 251.643 528.859 251.75 529.186 251.75ZM532.62 253V251.77C532.82 251.63 533.063 251.45 533.35 251.23C533.636 251.007 533.935 250.762 534.245 250.495C534.555 250.225 534.843 249.952 535.11 249.675C535.38 249.398 535.598 249.137 535.765 248.89C535.935 248.643 536.02 248.432 536.02 248.255C536.02 248.072 535.975 247.903 535.885 247.75C535.795 247.597 535.675 247.475 535.525 247.385C535.375 247.295 535.208 247.25 535.025 247.25C534.841 247.25 534.673 247.295 534.52 247.385C534.37 247.475 534.248 247.597 534.155 247.75C534.065 247.903 534.02 248.072 534.02 248.255H532.64C532.64 247.805 532.748 247.4 532.965 247.04C533.185 246.68 533.475 246.395 533.835 246.185C534.198 245.975 534.595 245.87 535.025 245.87C535.461 245.87 535.86 245.977 536.22 246.19C536.58 246.403 536.866 246.692 537.08 247.055C537.293 247.415 537.4 247.815 537.4 248.255C537.4 248.482 537.365 248.702 537.295 248.915C537.228 249.128 537.13 249.342 537 249.555C536.87 249.765 536.711 249.98 536.525 250.2C536.341 250.417 536.133 250.643 535.9 250.88C535.67 251.113 535.421 251.36 535.155 251.62H537.42V253H532.62ZM540.807 253.13C540.403 253.13 540.035 253.037 539.702 252.85C539.368 252.66 539.078 252.398 538.832 252.065C538.588 251.732 538.4 251.347 538.267 250.91C538.133 250.47 538.067 250 538.067 249.5C538.067 249 538.133 248.532 538.267 248.095C538.4 247.655 538.588 247.268 538.832 246.935C539.078 246.602 539.368 246.342 539.702 246.155C540.035 245.965 540.403 245.87 540.807 245.87C541.21 245.87 541.578 245.965 541.912 246.155C542.245 246.342 542.532 246.602 542.772 246.935C543.015 247.268 543.203 247.655 543.337 248.095C543.47 248.532 543.537 249 543.537 249.5C543.537 250 543.47 250.47 543.337 250.91C543.203 251.347 543.015 251.732 542.772 252.065C542.532 252.398 542.245 252.66 541.912 252.85C541.578 253.037 541.21 253.13 540.807 253.13ZM540.807 251.75C541.137 251.75 541.408 251.643 541.622 251.43C541.835 251.217 541.992 250.938 542.092 250.595C542.195 250.252 542.247 249.887 542.247 249.5C542.247 249.09 542.192 248.715 542.082 248.375C541.975 248.035 541.815 247.763 541.602 247.56C541.388 247.353 541.123 247.25 540.807 247.25C540.557 247.25 540.34 247.312 540.157 247.435C539.977 247.558 539.827 247.727 539.707 247.94C539.59 248.153 539.502 248.395 539.442 248.665C539.385 248.932 539.357 249.21 539.357 249.5C539.357 249.887 539.408 250.252 539.512 250.595C539.618 250.935 539.778 251.213 539.992 251.43C540.208 251.643 540.48 251.75 540.807 251.75Z" fill="#1F2025"/>
<path opacity="0.2" d="M577.464 246H579.034L581.574 253H580.109L579.689 251.84H576.809L576.389 253H574.924L577.464 246ZM577.314 250.46H579.184L578.244 247.895L577.314 250.46ZM585.093 253.13C584.533 253.13 584.04 252.993 583.613 252.72C583.19 252.447 582.858 252.08 582.618 251.62C582.381 251.157 582.263 250.643 582.263 250.08V246H583.643V250.08C583.643 250.383 583.7 250.662 583.813 250.915C583.926 251.168 584.091 251.372 584.308 251.525C584.525 251.675 584.786 251.75 585.093 251.75C585.403 251.75 585.665 251.675 585.878 251.525C586.095 251.375 586.258 251.173 586.368 250.92C586.478 250.667 586.533 250.387 586.533 250.08V246H587.913V250.08C587.913 250.503 587.845 250.9 587.708 251.27C587.575 251.637 587.383 251.96 587.133 252.24C586.883 252.52 586.585 252.738 586.238 252.895C585.895 253.052 585.513 253.13 585.093 253.13ZM592.349 253.13C591.862 253.13 591.409 253.035 590.989 252.845C590.572 252.655 590.207 252.393 589.894 252.06C589.584 251.723 589.342 251.335 589.169 250.895C588.995 250.455 588.909 249.987 588.909 249.49C588.909 248.957 589.004 248.47 589.194 248.03C589.384 247.59 589.642 247.21 589.969 246.89C590.295 246.567 590.665 246.318 591.079 246.145C591.495 245.968 591.929 245.88 592.379 245.88C592.872 245.88 593.355 245.995 593.829 246.225C594.302 246.455 594.725 246.82 595.099 247.32L593.869 247.98C593.655 247.733 593.417 247.55 593.154 247.43C592.894 247.31 592.629 247.25 592.359 247.25C592.089 247.25 591.829 247.305 591.579 247.415C591.332 247.525 591.112 247.682 590.919 247.885C590.725 248.088 590.572 248.328 590.459 248.605C590.345 248.882 590.289 249.187 590.289 249.52C590.289 249.83 590.342 250.12 590.449 250.39C590.559 250.66 590.709 250.897 590.899 251.1C591.089 251.303 591.309 251.463 591.559 251.58C591.812 251.693 592.082 251.75 592.369 251.75C592.545 251.75 592.719 251.725 592.889 251.675C593.062 251.622 593.227 251.545 593.384 251.445C593.54 251.345 593.684 251.22 593.814 251.07C593.947 250.92 594.064 250.747 594.164 250.55H593.079V249.35H595.789C595.809 249.867 595.734 250.353 595.564 250.81C595.394 251.267 595.15 251.67 594.834 252.02C594.517 252.367 594.147 252.638 593.724 252.835C593.3 253.032 592.842 253.13 592.349 253.13ZM598.997 253V251.77C599.197 251.63 599.44 251.45 599.727 251.23C600.013 251.007 600.312 250.762 600.622 250.495C600.932 250.225 601.22 249.952 601.487 249.675C601.757 249.398 601.975 249.137 602.142 248.89C602.312 248.643 602.397 248.432 602.397 248.255C602.397 248.072 602.352 247.903 602.262 247.75C602.172 247.597 602.052 247.475 601.902 247.385C601.752 247.295 601.585 247.25 601.402 247.25C601.218 247.25 601.05 247.295 600.897 247.385C600.747 247.475 600.625 247.597 600.532 247.75C600.442 247.903 600.397 248.072 600.397 248.255H599.017C599.017 247.805 599.125 247.4 599.342 247.04C599.562 246.68 599.852 246.395 600.212 246.185C600.575 245.975 600.972 245.87 601.402 245.87C601.838 245.87 602.237 245.977 602.597 246.19C602.957 246.403 603.243 246.692 603.457 247.055C603.67 247.415 603.777 247.815 603.777 248.255C603.777 248.482 603.742 248.702 603.672 248.915C603.605 249.128 603.507 249.342 603.377 249.555C603.247 249.765 603.088 249.98 602.902 250.2C602.718 250.417 602.51 250.643 602.277 250.88C602.047 251.113 601.798 251.36 601.532 251.62H603.797V253H598.997ZM607.184 253.13C606.78 253.13 606.412 253.037 606.079 252.85C605.745 252.66 605.455 252.398 605.209 252.065C604.965 251.732 604.777 251.347 604.644 250.91C604.51 250.47 604.444 250 604.444 249.5C604.444 249 604.51 248.532 604.644 248.095C604.777 247.655 604.965 247.268 605.209 246.935C605.455 246.602 605.745 246.342 606.079 246.155C606.412 245.965 606.78 245.87 607.184 245.87C607.587 245.87 607.955 245.965 608.289 246.155C608.622 246.342 608.909 246.602 609.149 246.935C609.392 247.268 609.58 247.655 609.714 248.095C609.847 248.532 609.914 249 609.914 249.5C609.914 250 609.847 250.47 609.714 250.91C609.58 251.347 609.392 251.732 609.149 252.065C608.909 252.398 608.622 252.66 608.289 252.85C607.955 253.037 607.587 253.13 607.184 253.13ZM607.184 251.75C607.514 251.75 607.785 251.643 607.999 251.43C608.212 251.217 608.369 250.938 608.469 250.595C608.572 250.252 608.624 249.887 608.624 249.5C608.624 249.09 608.569 248.715 608.459 248.375C608.352 248.035 608.192 247.763 607.979 247.56C607.765 247.353 607.5 247.25 607.184 247.25C606.934 247.25 606.717 247.312 606.534 247.435C606.354 247.558 606.204 247.727 606.084 247.94C605.967 248.153 605.879 248.395 605.819 248.665C605.762 248.932 605.734 249.21 605.734 249.5C605.734 249.887 605.785 250.252 605.889 250.595C605.995 250.935 606.155 251.213 606.369 251.43C606.585 251.643 606.857 251.75 607.184 251.75ZM610.618 253V251.77C610.818 251.63 611.061 251.45 611.348 251.23C611.634 251.007 611.933 250.762 612.243 250.495C612.553 250.225 612.841 249.952 613.108 249.675C613.378 249.398 613.596 249.137 613.763 248.89C613.933 248.643 614.018 248.432 614.018 248.255C614.018 248.072 613.973 247.903 613.883 247.75C613.793 247.597 613.673 247.475 613.523 247.385C613.373 247.295 613.206 247.25 613.023 247.25C612.839 247.25 612.671 247.295 612.518 247.385C612.368 247.475 612.246 247.597 612.153 247.75C612.063 247.903 612.018 248.072 612.018 248.255H610.638C610.638 247.805 610.746 247.4 610.963 247.04C611.183 246.68 611.473 246.395 611.833 246.185C612.196 245.975 612.593 245.87 613.023 245.87C613.459 245.87 613.858 245.977 614.218 246.19C614.578 246.403 614.864 246.692 615.078 247.055C615.291 247.415 615.398 247.815 615.398 248.255C615.398 248.482 615.363 248.702 615.293 248.915C615.226 249.128 615.128 249.342 614.998 249.555C614.868 249.765 614.709 249.98 614.523 250.2C614.339 250.417 614.131 250.643 613.898 250.88C613.668 251.113 613.419 251.36 613.153 251.62H615.418V253H610.618ZM618.805 253.13C618.401 253.13 618.033 253.037 617.7 252.85C617.366 252.66 617.076 252.398 616.83 252.065C616.586 251.732 616.398 251.347 616.265 250.91C616.131 250.47 616.065 250 616.065 249.5C616.065 249 616.131 248.532 616.265 248.095C616.398 247.655 616.586 247.268 616.83 246.935C617.076 246.602 617.366 246.342 617.7 246.155C618.033 245.965 618.401 245.87 618.805 245.87C619.208 245.87 619.576 245.965 619.91 246.155C620.243 246.342 620.53 246.602 620.77 246.935C621.013 247.268 621.201 247.655 621.335 248.095C621.468 248.532 621.535 249 621.535 249.5C621.535 250 621.468 250.47 621.335 250.91C621.201 251.347 621.013 251.732 620.77 252.065C620.53 252.398 620.243 252.66 619.91 252.85C619.576 253.037 619.208 253.13 618.805 253.13ZM618.805 251.75C619.135 251.75 619.406 251.643 619.62 251.43C619.833 251.217 619.99 250.938 620.09 250.595C620.193 250.252 620.245 249.887 620.245 249.5C620.245 249.09 620.19 248.715 620.08 248.375C619.973 248.035 619.813 247.763 619.6 247.56C619.386 247.353 619.121 247.25 618.805 247.25C618.555 247.25 618.338 247.312 618.155 247.435C617.975 247.558 617.825 247.727 617.705 247.94C617.588 248.153 617.5 248.395 617.44 248.665C617.383 248.932 617.355 249.21 617.355 249.5C617.355 249.887 617.406 250.252 617.51 250.595C617.616 250.935 617.776 251.213 617.99 251.43C618.206 251.643 618.478 251.75 618.805 251.75Z" fill="#1F2025"/>
<path opacity="0.2" d="M655.224 253.13C654.831 253.13 654.454 253.068 654.094 252.945C653.737 252.822 653.424 252.643 653.154 252.41C652.887 252.177 652.696 251.9 652.579 251.58L653.874 251.1C653.914 251.213 653.997 251.32 654.124 251.42C654.251 251.517 654.409 251.597 654.599 251.66C654.789 251.72 654.997 251.75 655.224 251.75C655.441 251.75 655.644 251.718 655.834 251.655C656.027 251.588 656.182 251.497 656.299 251.38C656.419 251.263 656.479 251.127 656.479 250.97C656.479 250.813 656.417 250.683 656.294 250.58C656.171 250.477 656.012 250.395 655.819 250.335C655.626 250.272 655.427 250.223 655.224 250.19C654.721 250.117 654.269 249.998 653.869 249.835C653.472 249.668 653.159 249.44 652.929 249.15C652.699 248.857 652.584 248.485 652.584 248.035C652.584 247.602 652.706 247.223 652.949 246.9C653.196 246.577 653.519 246.325 653.919 246.145C654.322 245.965 654.757 245.875 655.224 245.875C655.611 245.875 655.984 245.937 656.344 246.06C656.704 246.183 657.017 246.362 657.284 246.595C657.554 246.828 657.747 247.108 657.864 247.435L656.569 247.905C656.529 247.792 656.446 247.687 656.319 247.59C656.192 247.493 656.034 247.415 655.844 247.355C655.654 247.295 655.447 247.265 655.224 247.265C655.011 247.262 654.807 247.293 654.614 247.36C654.424 247.427 654.267 247.518 654.144 247.635C654.024 247.752 653.964 247.885 653.964 248.035C653.964 248.232 654.021 248.38 654.134 248.48C654.251 248.58 654.404 248.652 654.594 248.695C654.784 248.738 654.994 248.777 655.224 248.81C655.697 248.88 656.134 249.005 656.534 249.185C656.934 249.362 657.254 249.598 657.494 249.895C657.737 250.188 657.859 250.547 657.859 250.97C657.859 251.403 657.737 251.782 657.494 252.105C657.251 252.428 656.929 252.68 656.529 252.86C656.129 253.04 655.694 253.13 655.224 253.13ZM658.978 253V246H663.408V247.38H660.358V248.56H662.738V249.94H660.358V251.62H663.408V253H658.978ZM664.515 253V246H667.095C667.478 246 667.823 246.097 668.13 246.29C668.44 246.483 668.687 246.742 668.87 247.065C669.053 247.385 669.145 247.738 669.145 248.125C669.145 248.518 669.052 248.877 668.865 249.2C668.678 249.52 668.428 249.775 668.115 249.965C667.805 250.155 667.465 250.25 667.095 250.25H665.895V253H664.515ZM665.895 248.87H666.94C667.093 248.87 667.232 248.833 667.355 248.76C667.478 248.683 667.577 248.582 667.65 248.455C667.727 248.325 667.765 248.182 667.765 248.025C667.765 247.872 667.727 247.732 667.65 247.605C667.577 247.475 667.478 247.372 667.355 247.295C667.232 247.218 667.093 247.18 666.94 247.18H665.895V248.87ZM672.352 253V251.77C672.552 251.63 672.795 251.45 673.082 251.23C673.369 251.007 673.667 250.762 673.977 250.495C674.287 250.225 674.575 249.952 674.842 249.675C675.112 249.398 675.33 249.137 675.497 248.89C675.667 248.643 675.752 248.432 675.752 248.255C675.752 248.072 675.707 247.903 675.617 247.75C675.527 247.597 675.407 247.475 675.257 247.385C675.107 247.295 674.94 247.25 674.757 247.25C674.574 247.25 674.405 247.295 674.252 247.385C674.102 247.475 673.98 247.597 673.887 247.75C673.797 247.903 673.752 248.072 673.752 248.255H672.372C672.372 247.805 672.48 247.4 672.697 247.04C672.917 246.68 673.207 246.395 673.567 246.185C673.93 245.975 674.327 245.87 674.757 245.87C675.194 245.87 675.592 245.977 675.952 246.19C676.312 246.403 676.599 246.692 676.812 247.055C677.025 247.415 677.132 247.815 677.132 248.255C677.132 248.482 677.097 248.702 677.027 248.915C676.96 249.128 676.862 249.342 676.732 249.555C676.602 249.765 676.444 249.98 676.257 250.2C676.074 250.417 675.865 250.643 675.632 250.88C675.402 251.113 675.154 251.36 674.887 251.62H677.152V253H672.352ZM680.539 253.13C680.136 253.13 679.767 253.037 679.434 252.85C679.101 252.66 678.811 252.398 678.564 252.065C678.321 251.732 678.132 251.347 677.999 250.91C677.866 250.47 677.799 250 677.799 249.5C677.799 249 677.866 248.532 677.999 248.095C678.132 247.655 678.321 247.268 678.564 246.935C678.811 246.602 679.101 246.342 679.434 246.155C679.767 245.965 680.136 245.87 680.539 245.87C680.942 245.87 681.311 245.965 681.644 246.155C681.977 246.342 682.264 246.602 682.504 246.935C682.747 247.268 682.936 247.655 683.069 248.095C683.202 248.532 683.269 249 683.269 249.5C683.269 250 683.202 250.47 683.069 250.91C682.936 251.347 682.747 251.732 682.504 252.065C682.264 252.398 681.977 252.66 681.644 252.85C681.311 253.037 680.942 253.13 680.539 253.13ZM680.539 251.75C680.869 251.75 681.141 251.643 681.354 251.43C681.567 251.217 681.724 250.938 681.824 250.595C681.927 250.252 681.979 249.887 681.979 249.5C681.979 249.09 681.924 248.715 681.814 248.375C681.707 248.035 681.547 247.763 681.334 247.56C681.121 247.353 680.856 247.25 680.539 247.25C680.289 247.25 680.072 247.312 679.889 247.435C679.709 247.558 679.559 247.727 679.439 247.94C679.322 248.153 679.234 248.395 679.174 248.665C679.117 248.932 679.089 249.21 679.089 249.5C679.089 249.887 679.141 250.252 679.244 250.595C679.351 250.935 679.511 251.213 679.724 251.43C679.941 251.643 680.212 251.75 680.539 251.75ZM683.973 253V251.77C684.173 251.63 684.417 251.45 684.703 251.23C684.99 251.007 685.288 250.762 685.598 250.495C685.908 250.225 686.197 249.952 686.463 249.675C686.733 249.398 686.952 249.137 687.118 248.89C687.288 248.643 687.373 248.432 687.373 248.255C687.373 248.072 687.328 247.903 687.238 247.75C687.148 247.597 687.028 247.475 686.878 247.385C686.728 247.295 686.562 247.25 686.378 247.25C686.195 247.25 686.027 247.295 685.873 247.385C685.723 247.475 685.602 247.597 685.508 247.75C685.418 247.903 685.373 248.072 685.373 248.255H683.993C683.993 247.805 684.102 247.4 684.318 247.04C684.538 246.68 684.828 246.395 685.188 246.185C685.552 245.975 685.948 245.87 686.378 245.87C686.815 245.87 687.213 245.977 687.573 246.19C687.933 246.403 688.22 246.692 688.433 247.055C688.647 247.415 688.753 247.815 688.753 248.255C688.753 248.482 688.718 248.702 688.648 248.915C688.582 249.128 688.483 249.342 688.353 249.555C688.223 249.765 688.065 249.98 687.878 250.2C687.695 250.417 687.487 250.643 687.253 250.88C687.023 251.113 686.775 251.36 686.508 251.62H688.773V253H683.973ZM692.16 253.13C691.757 253.13 691.388 253.037 691.055 252.85C690.722 252.66 690.432 252.398 690.185 252.065C689.942 251.732 689.753 251.347 689.62 250.91C689.487 250.47 689.42 250 689.42 249.5C689.42 249 689.487 248.532 689.62 248.095C689.753 247.655 689.942 247.268 690.185 246.935C690.432 246.602 690.722 246.342 691.055 246.155C691.388 245.965 691.757 245.87 692.16 245.87C692.563 245.87 692.932 245.965 693.265 246.155C693.598 246.342 693.885 246.602 694.125 246.935C694.368 247.268 694.557 247.655 694.69 248.095C694.823 248.532 694.89 249 694.89 249.5C694.89 250 694.823 250.47 694.69 250.91C694.557 251.347 694.368 251.732 694.125 252.065C693.885 252.398 693.598 252.66 693.265 252.85C692.932 253.037 692.563 253.13 692.16 253.13ZM692.16 251.75C692.49 251.75 692.762 251.643 692.975 251.43C693.188 251.217 693.345 250.938 693.445 250.595C693.548 250.252 693.6 249.887 693.6 249.5C693.6 249.09 693.545 248.715 693.435 248.375C693.328 248.035 693.168 247.763 692.955 247.56C692.742 247.353 692.477 247.25 692.16 247.25C691.91 247.25 691.693 247.312 691.51 247.435C691.33 247.558 691.18 247.727 691.06 247.94C690.943 248.153 690.855 248.395 690.795 248.665C690.738 248.932 690.71 249.21 690.71 249.5C690.71 249.887 690.762 250.252 690.865 250.595C690.972 250.935 691.132 251.213 691.345 251.43C691.562 251.643 691.833 251.75 692.16 251.75Z" fill="#1F2025"/>
<path opacity="0.2" d="M729.699 253.13C729.225 253.13 728.78 253.037 728.364 252.85C727.947 252.66 727.58 252.398 727.264 252.065C726.947 251.732 726.699 251.347 726.519 250.91C726.339 250.47 726.249 250 726.249 249.5C726.249 249 726.339 248.532 726.519 248.095C726.699 247.655 726.947 247.268 727.264 246.935C727.58 246.602 727.947 246.342 728.364 246.155C728.78 245.965 729.225 245.87 729.699 245.87C730.175 245.87 730.622 245.965 731.039 246.155C731.455 246.342 731.822 246.602 732.139 246.935C732.455 247.268 732.702 247.655 732.879 248.095C733.059 248.532 733.149 249 733.149 249.5C733.149 250 733.059 250.47 732.879 250.91C732.702 251.347 732.455 251.732 732.139 252.065C731.822 252.398 731.455 252.66 731.039 252.85C730.622 253.037 730.175 253.13 729.699 253.13ZM729.699 251.75C729.982 251.75 730.249 251.692 730.499 251.575C730.749 251.455 730.969 251.292 731.159 251.085C731.349 250.878 731.497 250.64 731.604 250.37C731.714 250.1 731.769 249.81 731.769 249.5C731.769 249.19 731.714 248.9 731.604 248.63C731.497 248.357 731.349 248.118 731.159 247.915C730.969 247.708 730.749 247.547 730.499 247.43C730.249 247.31 729.982 247.25 729.699 247.25C729.415 247.25 729.149 247.31 728.899 247.43C728.649 247.547 728.429 247.708 728.239 247.915C728.049 248.122 727.899 248.36 727.789 248.63C727.682 248.9 727.629 249.19 727.629 249.5C727.629 249.81 727.682 250.102 727.789 250.375C727.899 250.645 728.049 250.883 728.239 251.09C728.429 251.293 728.649 251.455 728.899 251.575C729.149 251.692 729.415 251.75 729.699 251.75ZM737.286 253.13C736.813 253.13 736.368 253.037 735.951 252.85C735.535 252.66 735.168 252.398 734.851 252.065C734.538 251.732 734.291 251.347 734.111 250.91C733.935 250.47 733.846 250 733.846 249.5C733.846 248.997 733.935 248.527 734.111 248.09C734.291 247.65 734.538 247.265 734.851 246.935C735.168 246.602 735.535 246.342 735.951 246.155C736.368 245.965 736.813 245.87 737.286 245.87C737.853 245.87 738.375 246.002 738.851 246.265C739.328 246.525 739.723 246.873 740.036 247.31L738.806 247.975C738.62 247.755 738.395 247.58 738.131 247.45C737.868 247.317 737.586 247.25 737.286 247.25C737.003 247.25 736.736 247.308 736.486 247.425C736.236 247.542 736.016 247.703 735.826 247.91C735.64 248.117 735.493 248.355 735.386 248.625C735.28 248.895 735.226 249.187 735.226 249.5C735.226 249.81 735.28 250.102 735.386 250.375C735.493 250.645 735.64 250.883 735.826 251.09C736.016 251.293 736.236 251.455 736.486 251.575C736.736 251.692 737.003 251.75 737.286 251.75C737.59 251.75 737.871 251.683 738.131 251.55C738.395 251.417 738.62 251.24 738.806 251.02L740.036 251.69C739.723 252.123 739.328 252.472 738.851 252.735C738.375 252.998 737.853 253.13 737.286 253.13ZM746.29 246V247.38H744.23V253H742.85V247.38H740.79V246H746.29ZM749.491 253V251.77C749.691 251.63 749.934 251.45 750.221 251.23C750.507 251.007 750.806 250.762 751.116 250.495C751.426 250.225 751.714 249.952 751.981 249.675C752.251 249.398 752.469 249.137 752.636 248.89C752.806 248.643 752.891 248.432 752.891 248.255C752.891 248.072 752.846 247.903 752.756 247.75C752.666 247.597 752.546 247.475 752.396 247.385C752.246 247.295 752.079 247.25 751.896 247.25C751.712 247.25 751.544 247.295 751.391 247.385C751.241 247.475 751.119 247.597 751.026 247.75C750.936 247.903 750.891 248.072 750.891 248.255H749.511C749.511 247.805 749.619 247.4 749.836 247.04C750.056 246.68 750.346 246.395 750.706 246.185C751.069 245.975 751.466 245.87 751.896 245.87C752.332 245.87 752.731 245.977 753.091 246.19C753.451 246.403 753.737 246.692 753.951 247.055C754.164 247.415 754.271 247.815 754.271 248.255C754.271 248.482 754.236 248.702 754.166 248.915C754.099 249.128 754.001 249.342 753.871 249.555C753.741 249.765 753.582 249.98 753.396 250.2C753.212 250.417 753.004 250.643 752.771 250.88C752.541 251.113 752.292 251.36 752.026 251.62H754.291V253H749.491ZM757.678 253.13C757.274 253.13 756.906 253.037 756.573 252.85C756.239 252.66 755.949 252.398 755.703 252.065C755.459 251.732 755.271 251.347 755.138 250.91C755.004 250.47 754.938 250 754.938 249.5C754.938 249 755.004 248.532 755.138 248.095C755.271 247.655 755.459 247.268 755.703 246.935C755.949 246.602 756.239 246.342 756.573 246.155C756.906 245.965 757.274 245.87 757.678 245.87C758.081 245.87 758.449 245.965 758.783 246.155C759.116 246.342 759.403 246.602 759.643 246.935C759.886 247.268 760.074 247.655 760.208 248.095C760.341 248.532 760.408 249 760.408 249.5C760.408 250 760.341 250.47 760.208 250.91C760.074 251.347 759.886 251.732 759.643 252.065C759.403 252.398 759.116 252.66 758.783 252.85C758.449 253.037 758.081 253.13 757.678 253.13ZM757.678 251.75C758.008 251.75 758.279 251.643 758.493 251.43C758.706 251.217 758.863 250.938 758.963 250.595C759.066 250.252 759.118 249.887 759.118 249.5C759.118 249.09 759.063 248.715 758.953 248.375C758.846 248.035 758.686 247.763 758.473 247.56C758.259 247.353 757.994 247.25 757.678 247.25C757.428 247.25 757.211 247.312 757.028 247.435C756.848 247.558 756.698 247.727 756.578 247.94C756.461 248.153 756.373 248.395 756.313 248.665C756.256 248.932 756.228 249.21 756.228 249.5C756.228 249.887 756.279 250.252 756.383 250.595C756.489 250.935 756.649 251.213 756.863 251.43C757.079 251.643 757.351 251.75 757.678 251.75ZM761.112 253V251.77C761.312 251.63 761.555 251.45 761.842 251.23C762.129 251.007 762.427 250.762 762.737 250.495C763.047 250.225 763.335 249.952 763.602 249.675C763.872 249.398 764.09 249.137 764.257 248.89C764.427 248.643 764.512 248.432 764.512 248.255C764.512 248.072 764.467 247.903 764.377 247.75C764.287 247.597 764.167 247.475 764.017 247.385C763.867 247.295 763.7 247.25 763.517 247.25C763.334 247.25 763.165 247.295 763.012 247.385C762.862 247.475 762.74 247.597 762.647 247.75C762.557 247.903 762.512 248.072 762.512 248.255H761.132C761.132 247.805 761.24 247.4 761.457 247.04C761.677 246.68 761.967 246.395 762.327 246.185C762.69 245.975 763.087 245.87 763.517 245.87C763.954 245.87 764.352 245.977 764.712 246.19C765.072 246.403 765.359 246.692 765.572 247.055C765.785 247.415 765.892 247.815 765.892 248.255C765.892 248.482 765.857 248.702 765.787 248.915C765.72 249.128 765.622 249.342 765.492 249.555C765.362 249.765 765.204 249.98 765.017 250.2C764.834 250.417 764.625 250.643 764.392 250.88C764.162 251.113 763.914 251.36 763.647 251.62H765.912V253H761.112ZM769.299 253.13C768.895 253.13 768.527 253.037 768.194 252.85C767.86 252.66 767.57 252.398 767.324 252.065C767.08 251.732 766.892 251.347 766.759 250.91C766.625 250.47 766.559 250 766.559 249.5C766.559 249 766.625 248.532 766.759 248.095C766.892 247.655 767.08 247.268 767.324 246.935C767.57 246.602 767.86 246.342 768.194 246.155C768.527 245.965 768.895 245.87 769.299 245.87C769.702 245.87 770.07 245.965 770.404 246.155C770.737 246.342 771.024 246.602 771.264 246.935C771.507 247.268 771.695 247.655 771.829 248.095C771.962 248.532 772.029 249 772.029 249.5C772.029 250 771.962 250.47 771.829 250.91C771.695 251.347 771.507 251.732 771.264 252.065C771.024 252.398 770.737 252.66 770.404 252.85C770.07 253.037 769.702 253.13 769.299 253.13ZM769.299 251.75C769.629 251.75 769.9 251.643 770.114 251.43C770.327 251.217 770.484 250.938 770.584 250.595C770.687 250.252 770.739 249.887 770.739 249.5C770.739 249.09 770.684 248.715 770.574 248.375C770.467 248.035 770.307 247.763 770.094 247.56C769.88 247.353 769.615 247.25 769.299 247.25C769.049 247.25 768.832 247.312 768.649 247.435C768.469 247.558 768.319 247.727 768.199 247.94C768.082 248.153 767.994 248.395 767.934 248.665C767.877 248.932 767.849 249.21 767.849 249.5C767.849 249.887 767.9 250.252 768.004 250.595C768.11 250.935 768.27 251.213 768.484 251.43C768.7 251.643 768.972 251.75 769.299 251.75Z" fill="#1F2025"/>
<path opacity="0.2" d="M801.371 253V246H802.861L805.591 250.505V246H806.971V253H805.481L802.751 248.495V253H801.371ZM811.417 253.13C810.944 253.13 810.499 253.037 810.082 252.85C809.666 252.66 809.299 252.398 808.982 252.065C808.666 251.732 808.417 251.347 808.237 250.91C808.057 250.47 807.967 250 807.967 249.5C807.967 249 808.057 248.532 808.237 248.095C808.417 247.655 808.666 247.268 808.982 246.935C809.299 246.602 809.666 246.342 810.082 246.155C810.499 245.965 810.944 245.87 811.417 245.87C811.894 245.87 812.341 245.965 812.757 246.155C813.174 246.342 813.541 246.602 813.857 246.935C814.174 247.268 814.421 247.655 814.597 248.095C814.777 248.532 814.867 249 814.867 249.5C814.867 250 814.777 250.47 814.597 250.91C814.421 251.347 814.174 251.732 813.857 252.065C813.541 252.398 813.174 252.66 812.757 252.85C812.341 253.037 811.894 253.13 811.417 253.13ZM811.417 251.75C811.701 251.75 811.967 251.692 812.217 251.575C812.467 251.455 812.687 251.292 812.877 251.085C813.067 250.878 813.216 250.64 813.322 250.37C813.432 250.1 813.487 249.81 813.487 249.5C813.487 249.19 813.432 248.9 813.322 248.63C813.216 248.357 813.067 248.118 812.877 247.915C812.687 247.708 812.467 247.547 812.217 247.43C811.967 247.31 811.701 247.25 811.417 247.25C811.134 247.25 810.867 247.31 810.617 247.43C810.367 247.547 810.147 247.708 809.957 247.915C809.767 248.122 809.617 248.36 809.507 248.63C809.401 248.9 809.347 249.19 809.347 249.5C809.347 249.81 809.401 250.102 809.507 250.375C809.617 250.645 809.767 250.883 809.957 251.09C810.147 251.293 810.367 251.455 810.617 251.575C810.867 251.692 811.134 251.75 811.417 251.75ZM817.901 253L815.361 246H816.826L818.791 251.405L820.756 246H822.216L819.676 253H817.901ZM825.477 253V251.77C825.677 251.63 825.92 251.45 826.207 251.23C826.494 251.007 826.792 250.762 827.102 250.495C827.412 250.225 827.7 249.952 827.967 249.675C828.237 249.398 828.455 249.137 828.622 248.89C828.792 248.643 828.877 248.432 828.877 248.255C828.877 248.072 828.832 247.903 828.742 247.75C828.652 247.597 828.532 247.475 828.382 247.385C828.232 247.295 828.065 247.25 827.882 247.25C827.699 247.25 827.53 247.295 827.377 247.385C827.227 247.475 827.105 247.597 827.012 247.75C826.922 247.903 826.877 248.072 826.877 248.255H825.497C825.497 247.805 825.605 247.4 825.822 247.04C826.042 246.68 826.332 246.395 826.692 246.185C827.055 245.975 827.452 245.87 827.882 245.87C828.319 245.87 828.717 245.977 829.077 246.19C829.437 246.403 829.724 246.692 829.937 247.055C830.15 247.415 830.257 247.815 830.257 248.255C830.257 248.482 830.222 248.702 830.152 248.915C830.085 249.128 829.987 249.342 829.857 249.555C829.727 249.765 829.569 249.98 829.382 250.2C829.199 250.417 828.99 250.643 828.757 250.88C828.527 251.113 828.279 251.36 828.012 251.62H830.277V253H825.477ZM833.664 253.13C833.261 253.13 832.892 253.037 832.559 252.85C832.226 252.66 831.936 252.398 831.689 252.065C831.446 251.732 831.257 251.347 831.124 250.91C830.991 250.47 830.924 250 830.924 249.5C830.924 249 830.991 248.532 831.124 248.095C831.257 247.655 831.446 247.268 831.689 246.935C831.936 246.602 832.226 246.342 832.559 246.155C832.892 245.965 833.261 245.87 833.664 245.87C834.067 245.87 834.436 245.965 834.769 246.155C835.102 246.342 835.389 246.602 835.629 246.935C835.872 247.268 836.061 247.655 836.194 248.095C836.327 248.532 836.394 249 836.394 249.5C836.394 250 836.327 250.47 836.194 250.91C836.061 251.347 835.872 251.732 835.629 252.065C835.389 252.398 835.102 252.66 834.769 252.85C834.436 253.037 834.067 253.13 833.664 253.13ZM833.664 251.75C833.994 251.75 834.266 251.643 834.479 251.43C834.692 251.217 834.849 250.938 834.949 250.595C835.052 250.252 835.104 249.887 835.104 249.5C835.104 249.09 835.049 248.715 834.939 248.375C834.832 248.035 834.672 247.763 834.459 247.56C834.246 247.353 833.981 247.25 833.664 247.25C833.414 247.25 833.197 247.312 833.014 247.435C832.834 247.558 832.684 247.727 832.564 247.94C832.447 248.153 832.359 248.395 832.299 248.665C832.242 248.932 832.214 249.21 832.214 249.5C832.214 249.887 832.266 250.252 832.369 250.595C832.476 250.935 832.636 251.213 832.849 251.43C833.066 251.643 833.337 251.75 833.664 251.75ZM837.098 253V251.77C837.298 251.63 837.542 251.45 837.828 251.23C838.115 251.007 838.413 250.762 838.723 250.495C839.033 250.225 839.322 249.952 839.588 249.675C839.858 249.398 840.077 249.137 840.243 248.89C840.413 248.643 840.498 248.432 840.498 248.255C840.498 248.072 840.453 247.903 840.363 247.75C840.273 247.597 840.153 247.475 840.003 247.385C839.853 247.295 839.687 247.25 839.503 247.25C839.32 247.25 839.152 247.295 838.998 247.385C838.848 247.475 838.727 247.597 838.633 247.75C838.543 247.903 838.498 248.072 838.498 248.255H837.118C837.118 247.805 837.227 247.4 837.443 247.04C837.663 246.68 837.953 246.395 838.313 246.185C838.677 245.975 839.073 245.87 839.503 245.87C839.94 245.87 840.338 245.977 840.698 246.19C841.058 246.403 841.345 246.692 841.558 247.055C841.772 247.415 841.878 247.815 841.878 248.255C841.878 248.482 841.843 248.702 841.773 248.915C841.707 249.128 841.608 249.342 841.478 249.555C841.348 249.765 841.19 249.98 841.003 250.2C840.82 250.417 840.612 250.643 840.378 250.88C840.148 251.113 839.9 251.36 839.633 251.62H841.898V253H837.098ZM845.285 253.13C844.882 253.13 844.513 253.037 844.18 252.85C843.847 252.66 843.557 252.398 843.31 252.065C843.067 251.732 842.878 251.347 842.745 250.91C842.612 250.47 842.545 250 842.545 249.5C842.545 249 842.612 248.532 842.745 248.095C842.878 247.655 843.067 247.268 843.31 246.935C843.557 246.602 843.847 246.342 844.18 246.155C844.513 245.965 844.882 245.87 845.285 245.87C845.688 245.87 846.057 245.965 846.39 246.155C846.723 246.342 847.01 246.602 847.25 246.935C847.493 247.268 847.682 247.655 847.815 248.095C847.948 248.532 848.015 249 848.015 249.5C848.015 250 847.948 250.47 847.815 250.91C847.682 251.347 847.493 251.732 847.25 252.065C847.01 252.398 846.723 252.66 846.39 252.85C846.057 253.037 845.688 253.13 845.285 253.13ZM845.285 251.75C845.615 251.75 845.887 251.643 846.1 251.43C846.313 251.217 846.47 250.938 846.57 250.595C846.673 250.252 846.725 249.887 846.725 249.5C846.725 249.09 846.67 248.715 846.56 248.375C846.453 248.035 846.293 247.763 846.08 247.56C845.867 247.353 845.602 247.25 845.285 247.25C845.035 247.25 844.818 247.312 844.635 247.435C844.455 247.558 844.305 247.727 844.185 247.94C844.068 248.153 843.98 248.395 843.92 248.665C843.863 248.932 843.835 249.21 843.835 249.5C843.835 249.887 843.887 250.252 843.99 250.595C844.097 250.935 844.257 251.213 844.47 251.43C844.687 251.643 844.958 251.75 845.285 251.75Z" fill="#1F2025"/>
<path opacity="0.2" d="M878.173 253V246H880.493C880.977 246 881.428 246.092 881.848 246.275C882.272 246.455 882.643 246.707 882.963 247.03C883.287 247.35 883.538 247.722 883.718 248.145C883.902 248.565 883.993 249.017 883.993 249.5C883.993 249.983 883.902 250.437 883.718 250.86C883.538 251.28 883.287 251.652 882.963 251.975C882.643 252.295 882.272 252.547 881.848 252.73C881.428 252.91 880.977 253 880.493 253H878.173ZM879.553 251.62H880.493C880.78 251.62 881.05 251.565 881.303 251.455C881.56 251.345 881.787 251.193 881.983 251C882.18 250.807 882.333 250.582 882.443 250.325C882.557 250.068 882.613 249.793 882.613 249.5C882.613 249.207 882.557 248.933 882.443 248.68C882.333 248.423 882.18 248.198 881.983 248.005C881.79 247.808 881.565 247.655 881.308 247.545C881.055 247.435 880.783 247.38 880.493 247.38H879.553V251.62ZM884.775 253V246H889.205V247.38H886.155V248.56H888.535V249.94H886.155V251.62H889.205V253H884.775ZM893.532 253.13C893.059 253.13 892.614 253.037 892.197 252.85C891.781 252.66 891.414 252.398 891.097 252.065C890.784 251.732 890.537 251.347 890.357 250.91C890.181 250.47 890.092 250 890.092 249.5C890.092 248.997 890.181 248.527 890.357 248.09C890.537 247.65 890.784 247.265 891.097 246.935C891.414 246.602 891.781 246.342 892.197 246.155C892.614 245.965 893.059 245.87 893.532 245.87C894.099 245.87 894.621 246.002 895.097 246.265C895.574 246.525 895.969 246.873 896.282 247.31L895.052 247.975C894.866 247.755 894.641 247.58 894.377 247.45C894.114 247.317 893.832 247.25 893.532 247.25C893.249 247.25 892.982 247.308 892.732 247.425C892.482 247.542 892.262 247.703 892.072 247.91C891.886 248.117 891.739 248.355 891.632 248.625C891.526 248.895 891.472 249.187 891.472 249.5C891.472 249.81 891.526 250.102 891.632 250.375C891.739 250.645 891.886 250.883 892.072 251.09C892.262 251.293 892.482 251.455 892.732 251.575C892.982 251.692 893.249 251.75 893.532 251.75C893.836 251.75 894.117 251.683 894.377 251.55C894.641 251.417 894.866 251.24 895.052 251.02L896.282 251.69C895.969 252.123 895.574 252.472 895.097 252.735C894.621 252.998 894.099 253.13 893.532 253.13ZM899.585 253V251.77C899.785 251.63 900.028 251.45 900.315 251.23C900.601 251.007 900.9 250.762 901.21 250.495C901.52 250.225 901.808 249.952 902.075 249.675C902.345 249.398 902.563 249.137 902.73 248.89C902.9 248.643 902.985 248.432 902.985 248.255C902.985 248.072 902.94 247.903 902.85 247.75C902.76 247.597 902.64 247.475 902.49 247.385C902.34 247.295 902.173 247.25 901.99 247.25C901.806 247.25 901.638 247.295 901.485 247.385C901.335 247.475 901.213 247.597 901.12 247.75C901.03 247.903 900.985 248.072 900.985 248.255H899.605C899.605 247.805 899.713 247.4 899.93 247.04C900.15 246.68 900.44 246.395 900.8 246.185C901.163 245.975 901.56 245.87 901.99 245.87C902.426 245.87 902.825 245.977 903.185 246.19C903.545 246.403 903.831 246.692 904.045 247.055C904.258 247.415 904.365 247.815 904.365 248.255C904.365 248.482 904.33 248.702 904.26 248.915C904.193 249.128 904.095 249.342 903.965 249.555C903.835 249.765 903.676 249.98 903.49 250.2C903.306 250.417 903.098 250.643 902.865 250.88C902.635 251.113 902.386 251.36 902.12 251.62H904.385V253H899.585ZM907.771 253.13C907.368 253.13 907 253.037 906.666 252.85C906.333 252.66 906.043 252.398 905.796 252.065C905.553 251.732 905.365 251.347 905.231 250.91C905.098 250.47 905.031 250 905.031 249.5C905.031 249 905.098 248.532 905.231 248.095C905.365 247.655 905.553 247.268 905.796 246.935C906.043 246.602 906.333 246.342 906.666 246.155C907 245.965 907.368 245.87 907.771 245.87C908.175 245.87 908.543 245.965 908.876 246.155C909.21 246.342 909.496 246.602 909.736 246.935C909.98 247.268 910.168 247.655 910.301 248.095C910.435 248.532 910.501 249 910.501 249.5C910.501 250 910.435 250.47 910.301 250.91C910.168 251.347 909.98 251.732 909.736 252.065C909.496 252.398 909.21 252.66 908.876 252.85C908.543 253.037 908.175 253.13 907.771 253.13ZM907.771 251.75C908.101 251.75 908.373 251.643 908.586 251.43C908.8 251.217 908.956 250.938 909.056 250.595C909.16 250.252 909.211 249.887 909.211 249.5C909.211 249.09 909.156 248.715 909.046 248.375C908.94 248.035 908.78 247.763 908.566 247.56C908.353 247.353 908.088 247.25 907.771 247.25C907.521 247.25 907.305 247.312 907.121 247.435C906.941 247.558 906.791 247.727 906.671 247.94C906.555 248.153 906.466 248.395 906.406 248.665C906.35 248.932 906.321 249.21 906.321 249.5C906.321 249.887 906.373 250.252 906.476 250.595C906.583 250.935 906.743 251.213 906.956 251.43C907.173 251.643 907.445 251.75 907.771 251.75ZM911.206 253V251.77C911.406 251.63 911.649 251.45 911.936 251.23C912.222 251.007 912.521 250.762 912.831 250.495C913.141 250.225 913.429 249.952 913.696 249.675C913.966 249.398 914.184 249.137 914.351 248.89C914.521 248.643 914.606 248.432 914.606 248.255C914.606 248.072 914.561 247.903 914.471 247.75C914.381 247.597 914.261 247.475 914.111 247.385C913.961 247.295 913.794 247.25 913.611 247.25C913.427 247.25 913.259 247.295 913.106 247.385C912.956 247.475 912.834 247.597 912.741 247.75C912.651 247.903 912.606 248.072 912.606 248.255H911.226C911.226 247.805 911.334 247.4 911.551 247.04C911.771 246.68 912.061 246.395 912.421 246.185C912.784 245.975 913.181 245.87 913.611 245.87C914.047 245.87 914.446 245.977 914.806 246.19C915.166 246.403 915.452 246.692 915.666 247.055C915.879 247.415 915.986 247.815 915.986 248.255C915.986 248.482 915.951 248.702 915.881 248.915C915.814 249.128 915.716 249.342 915.586 249.555C915.456 249.765 915.297 249.98 915.111 250.2C914.927 250.417 914.719 250.643 914.486 250.88C914.256 251.113 914.007 251.36 913.741 251.62H916.006V253H911.206ZM919.393 253.13C918.989 253.13 918.621 253.037 918.288 252.85C917.954 252.66 917.664 252.398 917.418 252.065C917.174 251.732 916.986 251.347 916.853 250.91C916.719 250.47 916.653 250 916.653 249.5C916.653 249 916.719 248.532 916.853 248.095C916.986 247.655 917.174 247.268 917.418 246.935C917.664 246.602 917.954 246.342 918.288 246.155C918.621 245.965 918.989 245.87 919.393 245.87C919.796 245.87 920.164 245.965 920.498 246.155C920.831 246.342 921.118 246.602 921.358 246.935C921.601 247.268 921.789 247.655 921.923 248.095C922.056 248.532 922.123 249 922.123 249.5C922.123 250 922.056 250.47 921.923 250.91C921.789 251.347 921.601 251.732 921.358 252.065C921.118 252.398 920.831 252.66 920.498 252.85C920.164 253.037 919.796 253.13 919.393 253.13ZM919.393 251.75C919.723 251.75 919.994 251.643 920.208 251.43C920.421 251.217 920.578 250.938 920.678 250.595C920.781 250.252 920.833 249.887 920.833 249.5C920.833 249.09 920.778 248.715 920.668 248.375C920.561 248.035 920.401 247.763 920.188 247.56C919.974 247.353 919.709 247.25 919.393 247.25C919.143 247.25 918.926 247.312 918.743 247.435C918.563 247.558 918.413 247.727 918.293 247.94C918.176 248.153 918.088 248.395 918.028 248.665C917.971 248.932 917.943 249.21 917.943 249.5C917.943 249.887 917.994 250.252 918.098 250.595C918.204 250.935 918.364 251.213 918.578 251.43C918.794 251.643 919.066 251.75 919.393 251.75Z" fill="#1F2025"/>
<path d="M57 98C57 95.2386 59.2386 93 62 93C64.7614 93 67 95.2386 67 98V232H57V98Z" fill="#205BF1"/>
<path d="M73 170C73 167.239 75.2386 165 78 165C80.7614 165 83 167.239 83 170V232H73V170Z" fill="#E9900C"/>
<path d="M132.454 162C132.454 159.239 134.693 157 137.454 157C140.216 157 142.454 159.239 142.454 162V232H132.454V162Z" fill="#205BF1"/>
<path d="M148.454 197C148.454 194.239 150.693 192 153.454 192C156.216 192 158.454 194.239 158.454 197V232H148.454V197Z" fill="#E9900C"/>
<path d="M207.909 151C207.909 148.239 210.148 146 212.909 146C215.671 146 217.909 148.239 217.909 151V232H207.909V151Z" fill="#205BF1"/>
<path d="M223.909 166C223.909 163.239 226.148 161 228.909 161C231.671 161 233.909 163.239 233.909 166V232H223.909V166Z" fill="#E9900C"/>
<path d="M283.363 60C283.363 57.2386 285.602 55 288.363 55C291.125 55 293.363 57.2386 293.363 60V232H283.363V60Z" fill="#205BF1"/>
<path d="M299.363 120C299.363 117.239 301.602 115 304.363 115C307.125 115 309.363 117.239 309.363 120V232H299.363V120Z" fill="#E9900C"/>
<path d="M358.818 93C358.818 90.2386 361.057 88 363.818 88C366.58 88 368.818 90.2386 368.818 93V232H358.818V93Z" fill="#205BF1"/>
<path d="M374.818 152C374.818 149.239 377.057 147 379.818 147C382.58 147 384.818 149.239 384.818 152V232H374.818V152Z" fill="#E9900C"/>
<path d="M434.272 146C434.272 143.239 436.511 141 439.272 141C442.034 141 444.272 143.239 444.272 146V232H434.272V146Z" fill="#205BF1"/>
<path d="M450.272 165C450.272 162.239 452.511 160 455.272 160C458.034 160 460.272 162.239 460.272 165V232H450.272V165Z" fill="#E9900C"/>
<path d="M509.728 114C509.728 111.239 511.966 109 514.728 109C517.489 109 519.728 111.239 519.728 114V232H509.728V114Z" fill="#205BF1"/>
<path d="M525.728 174C525.728 171.239 527.966 169 530.728 169C533.489 169 535.728 171.239 535.728 174V232H525.728V174Z" fill="#E9900C"/>
<path d="M585.182 56C585.182 53.2386 587.42 51 590.182 51C592.943 51 595.182 53.2386 595.182 56V232H585.182V56Z" fill="#205BF1"/>
<path d="M601.182 113C601.182 110.239 603.42 108 606.182 108C608.943 108 611.182 110.239 611.182 113V232H601.182V113Z" fill="#E9900C"/>
<path d="M660.637 148C660.637 145.239 662.875 143 665.637 143C668.398 143 670.637 145.239 670.637 148V232H660.637V148Z" fill="#205BF1"/>
<path d="M676.637 187C676.637 184.239 678.875 182 681.637 182C684.398 182 686.637 184.239 686.637 187V232H676.637V187Z" fill="#E9900C"/>
<path d="M736.091 93C736.091 90.2386 738.329 88 741.091 88C743.852 88 746.091 90.2386 746.091 93V232H736.091V93Z" fill="#205BF1"/>
<path d="M752.091 152C752.091 149.239 754.329 147 757.091 147C759.852 147 762.091 149.239 762.091 152V232H752.091V152Z" fill="#E9900C"/>
<path d="M811.545 146C811.545 143.239 813.783 141 816.545 141C819.306 141 821.545 143.239 821.545 146V232H811.545V146Z" fill="#205BF1"/>
<path d="M827.545 165C827.545 162.239 829.783 160 832.545 160C835.306 160 837.545 162.239 837.545 165V232H827.545V165Z" fill="#E9900C"/>
<path d="M887 114C887 111.239 889.239 109 892 109C894.761 109 897 111.239 897 114V232H887V114Z" fill="#205BF1"/>
<path d="M903 174C903 171.239 905.239 169 908 169C910.761 169 913 171.239 913 174V232H903V174Z" fill="#E9900C"/>
<rect x="0.5" y="0.5" width="969" height="339" stroke="#1F2025" stroke-opacity="0.05"/>
</svg>
