<svg width="390" height="337" viewBox="0 0 390 337" fill="none" xmlns="http://www.w3.org/2000/svg">
<path d="M360.026 225.726H245.491V334.86H360.026V225.726Z" fill="#1F2025" stroke="white" stroke-width="3" stroke-miterlimit="10"/>
<path d="M245.491 334.86H3.96875L186.65 100.476L269.279 137.146L245.491 334.86Z" fill="#205BF1" stroke="white" stroke-width="3" stroke-miterlimit="10"/>
<path d="M186.65 100.476C196.781 77.6511 223.476 67.3655 246.3 77.4963C269.124 87.6271 279.41 114.322 269.279 137.146L186.65 100.476Z" fill="#1F2025" stroke="white" stroke-width="3" stroke-miterlimit="10" stroke-linecap="round" stroke-linejoin="round"/>
<path d="M241.741 70.0143L279.237 32.5527L288.766 42.3567L251.287 79.8011L241.741 70.0143Z" fill="#1F2025" stroke="white" stroke-width="3" stroke-miterlimit="10"/>
<path d="M374.078 106.375L287.562 32.5527L278.532 42.9071L364.739 116.42L374.078 106.375Z" fill="#1F2025" stroke="white" stroke-width="3" stroke-miterlimit="10"/>
<path d="M336.479 216.747L375.764 113.117L362.348 108.68L322.702 214.133L336.479 216.747Z" fill="#1F2025" stroke="white" stroke-width="3" stroke-miterlimit="10"/>
<path d="M387.924 225.726H278.532V224.848C278.532 216.575 285.24 209.85 293.531 209.85H372.943C381.216 209.85 387.941 216.558 387.941 224.848V225.726H387.924Z" fill="#1F2025" stroke="white" stroke-width="3" stroke-miterlimit="10"/>
<path d="M304.281 204.828H299.259V209.85H304.281V204.828Z" fill="#1F2025" stroke="white" stroke-width="3" stroke-miterlimit="10"/>
<path d="M366.906 126.757C375.665 126.757 382.765 119.657 382.765 110.898C382.765 102.14 375.665 95.04 366.906 95.04C358.148 95.04 351.048 102.14 351.048 110.898C351.048 119.657 358.148 126.757 366.906 126.757Z" fill="#1F2025" stroke="white" stroke-width="3" stroke-miterlimit="10"/>
<path d="M366.906 117.796C370.715 117.796 373.803 114.708 373.803 110.899C373.803 107.089 370.715 104.001 366.906 104.001C363.097 104.001 360.009 107.089 360.009 110.899C360.009 114.708 363.097 117.796 366.906 117.796Z" fill="white" stroke="white" stroke-width="3" stroke-miterlimit="10"/>
<path d="M283.4 53.8979C292.159 53.8979 299.259 46.7979 299.259 38.0396C299.259 29.2812 292.159 22.1812 283.4 22.1812C274.642 22.1812 267.542 29.2812 267.542 38.0396C267.542 46.7979 274.642 53.8979 283.4 53.8979Z" fill="#1F2025" stroke="white" stroke-width="3" stroke-miterlimit="10"/>
<path d="M283.4 44.937C287.209 44.937 290.297 41.849 290.297 38.0398C290.297 34.2306 287.209 31.1426 283.4 31.1426C279.591 31.1426 276.503 34.2306 276.503 38.0398C276.503 41.849 279.591 44.937 283.4 44.937Z" fill="white" stroke="white" stroke-width="3" stroke-miterlimit="10"/>
<path d="M247.143 90.1553C255.901 90.1553 263.001 83.0552 263.001 74.2969C263.001 65.5385 255.901 58.4385 247.143 58.4385C238.384 58.4385 231.284 65.5385 231.284 74.2969C231.284 83.0552 238.384 90.1553 247.143 90.1553Z" fill="#1F2025" stroke="white" stroke-width="3" stroke-miterlimit="10"/>
<path d="M247.142 81.1943C250.952 81.1943 254.04 78.1063 254.04 74.2971C254.04 70.4879 250.952 67.3999 247.142 67.3999C243.333 67.3999 240.245 70.4879 240.245 74.2971C240.245 78.1063 243.333 81.1943 247.142 81.1943Z" fill="white" stroke="white" stroke-width="3" stroke-miterlimit="10"/>
<path d="M352.682 205.774H313.775V209.85H352.682V205.774Z" fill="white" stroke="white" stroke-width="3" stroke-miterlimit="10"/>
<path d="M299.258 318.898H279.96V327.688H299.258V318.898Z" fill="#1F2025" stroke="#1F2025" stroke-width="3" stroke-miterlimit="10"/>
<path d="M60.9718 178.228L60.5054 177.022L60.0391 178.228L58.416 182.425L54.2191 184.048L53.0132 184.515L54.2191 184.981L58.416 186.604L60.0391 190.801L60.5063 192.009L60.972 190.8L62.5948 186.588L66.7902 184.982L68.0038 184.517L66.7918 184.048L62.5948 182.425L60.9718 178.228Z" fill="white" stroke="white"/>
<path d="M77.3458 2.96028L76.8794 1.75439L76.4131 2.96028L74.7901 7.15724L70.5931 8.78028L69.3872 9.24663L70.5931 9.71297L74.7901 11.336L76.4131 15.533L76.8794 16.7389L77.3458 15.533L78.9688 11.336L83.1658 9.71297L84.3717 9.24663L83.1658 8.78028L78.9688 7.15724L77.3458 2.96028Z" fill="white" stroke="white"/>
<path d="M165.496 40.783L165.027 39.571L164.563 40.7846L162.957 44.98L158.744 46.6028L157.535 47.0685L158.743 47.5357L162.94 49.1588L164.563 53.3557L165.03 54.5616L165.496 53.3557L167.119 49.1588L171.316 47.5357L172.522 47.0694L171.316 46.603L167.119 44.98L165.496 40.783Z" fill="white" stroke="white"/>
<path d="M314.242 136.966L313.773 135.749L313.308 136.968L311.702 141.18L307.489 142.803L306.274 143.271L307.49 143.736L311.686 145.342L313.308 149.555L313.775 150.766L314.242 149.555L315.864 145.342L320.06 143.736L321.273 143.272L320.061 142.803L315.865 141.18L314.242 136.966Z" fill="white" stroke="white"/>
<path d="M379.395 9.06685L378.928 7.85563L378.462 9.06685L376.839 13.2796L372.644 14.8856L371.43 15.3502L372.642 15.8189L376.839 17.442L378.462 21.6389L378.928 22.8448L379.395 21.6389L381.018 17.442L385.215 15.8189L386.427 15.3502L385.213 14.8856L381.018 13.2796L379.395 9.06685Z" fill="white" stroke="white"/>
<path d="M238.08 150.089L237.611 148.877L237.147 150.09L235.541 154.286L231.328 155.908L230.119 156.374L231.327 156.841L235.524 158.464L237.147 162.661L237.615 163.87L238.08 162.661L239.703 158.448L243.899 156.842L245.112 156.377L243.9 155.909L239.703 154.286L238.08 150.089Z" fill="#1F2025" stroke="#1F2025"/>
<path d="M171.496 161.301L171.027 160.089L170.563 161.302L168.957 165.498L164.744 167.12L163.535 167.586L164.743 168.053L168.94 169.676L170.563 173.873L171.03 175.079L171.496 173.873L173.119 169.676L177.316 168.053L178.522 167.587L177.316 167.121L173.119 165.498L171.496 161.301Z" fill="#1F2025" stroke="#1F2025"/>
<path d="M58.8662 302.491L58.4013 301.272L57.9324 302.489L56.3092 306.703L52.1126 308.326L50.9006 308.795L52.1142 309.259L56.3096 310.865L57.9324 315.078L58.4013 316.295L58.8662 315.076L60.472 310.865L64.6831 309.259L65.9021 308.795L64.6847 308.326L60.4723 306.703L58.8662 302.491Z" fill="#1F2025" stroke="#1F2025"/>
<path d="M130.317 285.106L129.852 283.887L129.383 285.104L127.76 289.318L123.547 290.941L122.329 291.41L123.548 291.875L127.761 293.481L129.383 297.693L129.852 298.91L130.317 297.692L131.923 293.48L136.134 291.875L137.353 291.41L136.136 290.941L131.923 289.318L130.317 285.106Z" fill="#1F2025" stroke="#1F2025"/>
<path d="M162.381 215.206L167.558 228.691L181.06 233.885L167.558 239.08L162.381 252.564L157.169 239.08L143.685 233.885L157.187 228.691L162.381 215.206Z" stroke="#1F2025" stroke-width="3" stroke-miterlimit="10" stroke-linecap="round" stroke-linejoin="round"/>
</svg>
