<svg width="20" height="20" viewBox="0 0 20 20" fill="none" xmlns="http://www.w3.org/2000/svg">
<g id="book">
<path id="Vector (Stroke)" fill-rule="evenodd" clip-rule="evenodd" d="M3.33366 5.50065V14.5225C4.26312 14.1753 5.25071 13.9954 6.25033 13.9954C7.24995 13.9954 8.23753 14.1753 9.16699 14.5225V5.50065C8.26012 5.05942 7.26294 4.82878 6.25033 4.82878C5.23771 4.82878 4.24054 5.05942 3.33366 5.50065ZM10.8337 5.50065V14.5225C11.7631 14.1753 12.7507 13.9954 13.7503 13.9954C14.7499 13.9954 15.7375 14.1753 16.667 14.5225V5.50065C15.7601 5.05942 14.7629 4.82878 13.7503 4.82878C12.7377 4.82878 11.7405 5.05942 10.8337 5.50065ZM10.0003 4.05354C8.83914 3.4684 7.55498 3.16211 6.25033 3.16211C4.78752 3.16211 3.35049 3.54716 2.08366 4.27856C1.82582 4.42742 1.66699 4.70253 1.66699 5.00025V15.8336C1.66699 16.1313 1.82582 16.4064 2.08366 16.5553C2.34149 16.7041 2.65916 16.7041 2.91699 16.5553C3.93045 15.9702 5.08008 15.6621 6.25033 15.6621C7.42057 15.6621 8.5702 15.9702 9.58366 16.5553C9.84149 16.7041 10.1592 16.7041 10.417 16.5553C11.4305 15.9702 12.5801 15.6621 13.7503 15.6621C14.9206 15.6621 16.0702 15.9702 17.0837 16.5553C17.3415 16.7041 17.6592 16.7041 17.917 16.5553C18.1748 16.4064 18.3337 16.1313 18.3337 15.8336V5.00025C18.3337 4.70253 18.1748 4.42742 17.917 4.27856C16.6502 3.54716 15.2131 3.16211 13.7503 3.16211C12.4457 3.16211 11.1615 3.4684 10.0003 4.05354Z" fill="#205BF1"/>
</g>
</svg>
