<svg width="20" height="20" viewBox="0 0 20 20" fill="none" xmlns="http://www.w3.org/2000/svg">
<g id="video">
<path id="Vector (Stroke)" fill-rule="evenodd" clip-rule="evenodd" d="M4.16699 5.83317C3.70675 5.83317 3.33366 6.20627 3.33366 6.6665V13.3332C3.33366 13.7934 3.70676 14.1665 4.16699 14.1665H10.8337C11.2939 14.1665 11.667 13.7934 11.667 13.3332V6.6665C11.667 6.20627 11.2939 5.83317 10.8337 5.83317H4.16699ZM13.3337 6.98504V6.6665C13.3337 5.28579 12.2144 4.1665 10.8337 4.1665H4.16699C2.78628 4.1665 1.66699 5.28579 1.66699 6.6665V13.3332C1.66699 14.7139 2.78628 15.8332 4.16699 15.8332H10.8337C12.2144 15.8332 13.3337 14.7139 13.3337 13.3332V13.0148L15.9219 14.3087C16.1759 14.4356 16.4583 14.4956 16.742 14.4828C17.0257 14.47 17.3014 14.385 17.543 14.2357C17.7846 14.0864 17.984 13.8779 18.1224 13.6299C18.2608 13.3819 18.3335 13.1027 18.3337 12.8187V7.1816C18.3335 6.89762 18.2608 6.61794 18.1224 6.36994C17.984 6.12195 17.7846 5.91343 17.543 5.76417C17.3014 5.6149 17.0257 5.52985 16.742 5.51707C16.4583 5.50429 16.176 5.56422 15.922 5.69116L13.3337 6.98504ZM13.3337 8.84835V11.1515L16.667 12.8178V7.18205L13.3337 8.84835Z" fill="#205BF1"/>
</g>
</svg>
