<svg width="32" height="32" viewBox="0 0 32 32" fill="none" xmlns="http://www.w3.org/2000/svg">
<g id="cloud-storm">
<path id="Vector (Stroke)" fill-rule="evenodd" clip-rule="evenodd" d="M20.748 7.2974C21.4733 8.12709 21.3922 9.3908 20.567 10.12L16.1758 14.0001L20.2712 15.1034C20.9798 15.2943 21.5264 15.8618 21.6934 16.5801C21.8603 17.2983 21.6206 18.0506 21.0695 18.5376L13.8864 24.8846C13.0612 25.6138 11.8044 25.5323 11.0791 24.7026C10.3539 23.8729 10.435 22.6092 11.2602 21.88L15.6514 17.9999L11.556 16.8966C10.8474 16.7056 10.3008 16.1381 10.1338 15.4199C9.96686 14.7016 10.2066 13.9493 10.7577 13.4624L17.9408 7.11536C18.766 6.3862 20.0228 6.4677 20.748 7.2974Z" fill="#205BF1"/>
</g>
</svg>
