<svg width="75" height="20" viewBox="0 0 75 20" fill="none" xmlns="http://www.w3.org/2000/svg">
<g id="Quickit">
<path d="M14.4555 19.252L12.8562 17.404C12.1322 17.9 11.3524 18.288 10.5169 18.568C9.68148 18.848 8.82216 18.988 7.93896 18.988C6.80115 18.988 5.76678 18.764 4.83584 18.316C3.90491 17.86 3.11719 17.236 2.4727 16.444C1.8282 15.644 1.36671 14.716 1.08823 13.66C0.809743 12.604 0.754046 11.476 0.921137 10.276C1.08823 9.07599 1.45822 7.95199 2.0311 6.90399C2.60398 5.84799 3.32407 4.91999 4.19135 4.11999C5.05863 3.31999 6.02139 2.69599 7.07964 2.24799C8.13788 1.79199 9.23591 1.56399 10.3737 1.56399C11.5115 1.56399 12.5419 1.79199 13.4649 2.24799C14.3958 2.69599 15.1836 3.31999 15.828 4.11999C16.4725 4.91999 16.934 5.84799 17.2125 6.90399C17.491 7.95199 17.5467 9.07599 17.3796 10.276C17.2523 11.212 16.9937 12.104 16.6038 12.952C16.2219 13.792 15.7445 14.568 15.1716 15.28L16.8067 17.188L14.4555 19.252ZM8.34475 16.06C8.80624 16.06 9.26773 15.992 9.72922 15.856C10.1987 15.712 10.6363 15.512 11.0421 15.256L9.74116 13.732L12.0924 11.656L13.3097 13.096C13.6201 12.68 13.8747 12.232 14.0736 11.752C14.2725 11.272 14.4038 10.78 14.4674 10.276C14.5788 9.47599 14.543 8.72799 14.36 8.03199C14.185 7.33599 13.8906 6.72399 13.4768 6.19599C13.0631 5.65999 12.5539 5.24399 11.9491 4.94799C11.3524 4.64399 10.692 4.49199 9.96793 4.49199C9.22795 4.49199 8.51582 4.64399 7.83155 4.94799C7.14727 5.25199 6.52267 5.67199 5.95774 6.20799C5.40077 6.73599 4.93132 7.34799 4.5494 8.04399C4.17543 8.73999 3.93673 9.48399 3.8333 10.276C3.7219 11.068 3.75373 11.816 3.92878 12.52C4.11178 13.216 4.41016 13.832 4.82391 14.368C5.23766 14.896 5.74291 15.312 6.33966 15.616C6.94437 15.912 7.61274 16.06 8.34475 16.06Z" fill="url(#paint0_linear_613_3034)"/>
<path d="M18.7523 14.308L19.8026 6.74799H22.7148L21.76 13.54C21.7043 14.012 21.7639 14.444 21.939 14.836C22.114 15.22 22.3766 15.528 22.7267 15.76C23.0848 15.984 23.4945 16.096 23.956 16.096C24.4255 16.096 24.8671 15.984 25.2808 15.76C25.7025 15.528 26.0526 15.22 26.3311 14.836C26.6175 14.444 26.7926 14.012 26.8562 13.54L27.811 6.74799H30.7232L29.0642 18.748H26.1521L26.2834 17.656C25.8139 18.088 25.2768 18.432 24.6721 18.688C24.0754 18.936 23.4547 19.06 22.8103 19.06C21.943 19.06 21.1791 18.848 20.5187 18.424C19.8663 17.992 19.3769 17.42 19.0507 16.708C18.7324 15.988 18.633 15.188 18.7523 14.308Z" fill="url(#paint1_linear_613_3034)"/>
<path d="M33.1242 6.74799H36.0364L34.3655 18.748H31.4533L33.1242 6.74799ZM34.819 5.19999C34.3893 5.19999 34.0472 5.05999 33.7926 4.77999C33.538 4.49199 33.4425 4.13199 33.5061 3.69999C33.5698 3.27599 33.7647 2.91999 34.091 2.63199C34.4251 2.34399 34.8071 2.19999 35.2367 2.19999C35.6505 2.19999 35.9807 2.34399 36.2273 2.63199C36.4819 2.91999 36.5814 3.27599 36.5257 3.69999C36.4621 4.13199 36.2671 4.49199 35.9409 4.77999C35.6226 5.05999 35.2487 5.19999 34.819 5.19999Z" fill="url(#paint2_linear_613_3034)"/>
<path d="M44.8676 15.136L47.2785 16.564C46.626 17.316 45.8542 17.92 44.9631 18.376C44.0719 18.832 43.137 19.06 42.1583 19.06C41.0603 19.06 40.0975 18.776 39.27 18.208C38.4505 17.64 37.8378 16.88 37.432 15.928C37.0342 14.968 36.9148 13.908 37.074 12.748C37.1933 11.868 37.4599 11.048 37.8736 10.288C38.2953 9.51999 38.8205 8.84799 39.4491 8.27199C40.0776 7.68799 40.7738 7.23199 41.5377 6.90399C42.3095 6.57599 43.1052 6.41199 43.9247 6.41199C44.9034 6.41199 45.7746 6.63999 46.5385 7.09599C47.3103 7.55199 47.915 8.16399 48.3526 8.93199L45.524 10.348C45.2853 10.028 44.9909 9.77999 44.6408 9.60399C44.2907 9.42799 43.9167 9.33999 43.5189 9.33999C42.9381 9.33999 42.397 9.49999 41.8957 9.81999C41.3945 10.132 40.9728 10.548 40.6306 11.068C40.2885 11.58 40.0737 12.14 39.9861 12.748C39.9066 13.348 39.9623 13.908 40.1532 14.428C40.3521 14.94 40.6585 15.352 41.0722 15.664C41.4939 15.976 41.9912 16.132 42.5641 16.132C42.9779 16.132 43.3837 16.044 43.7815 15.868C44.1873 15.684 44.5493 15.44 44.8676 15.136Z" fill="url(#paint3_linear_613_3034)"/>
<path d="M59.4198 18.748H56.066L54.0013 14.032L52.0439 16.036L51.6739 18.748H48.7618L51.2681 0.747986H54.1803L52.6765 11.488L57.2953 6.74799H61.1026L56.3286 11.656L59.4198 18.748Z" fill="url(#paint4_linear_613_3034)"/>
<path d="M62.822 6.74799H65.7342L64.0633 18.748H61.1511L62.822 6.74799ZM64.5168 5.19999C64.0872 5.19999 63.745 5.05999 63.4904 4.77999C63.2358 4.49199 63.1403 4.13199 63.204 3.69999C63.2676 3.27599 63.4626 2.91999 63.7888 2.63199C64.123 2.34399 64.5049 2.19999 64.9345 2.19999C65.3483 2.19999 65.6785 2.34399 65.9252 2.63199C66.1798 2.91999 66.2792 3.27599 66.2235 3.69999C66.1599 4.13199 65.9649 4.49199 65.6387 4.77999C65.3204 5.05999 64.9465 5.19999 64.5168 5.19999Z" fill="url(#paint5_linear_613_3034)"/>
<path d="M74.5945 9.67599H72.2791L71.014 18.748H68.1018L69.3669 9.67599H67.6005L68.0063 6.74799H69.7727L70.2979 2.97999H73.21L72.6849 6.74799H75.0003L74.5945 9.67599Z" fill="url(#paint6_linear_613_3034)"/>
</g>
<defs>
<linearGradient id="paint0_linear_613_3034" x1="-0.0455454" y1="12.748" x2="75.5433" y2="12.748" gradientUnits="userSpaceOnUse">
<stop stop-color="#205BF1"/>
<stop offset="0.708333" stop-color="white"/>
</linearGradient>
<linearGradient id="paint1_linear_613_3034" x1="-0.0455454" y1="12.748" x2="75.5433" y2="12.748" gradientUnits="userSpaceOnUse">
<stop stop-color="#205BF1"/>
<stop offset="0.708333" stop-color="white"/>
</linearGradient>
<linearGradient id="paint2_linear_613_3034" x1="-0.0455454" y1="12.748" x2="75.5433" y2="12.748" gradientUnits="userSpaceOnUse">
<stop stop-color="#205BF1"/>
<stop offset="0.708333" stop-color="white"/>
</linearGradient>
<linearGradient id="paint3_linear_613_3034" x1="-0.0455454" y1="12.748" x2="75.5433" y2="12.748" gradientUnits="userSpaceOnUse">
<stop stop-color="#205BF1"/>
<stop offset="0.708333" stop-color="white"/>
</linearGradient>
<linearGradient id="paint4_linear_613_3034" x1="-0.0455454" y1="12.748" x2="75.5433" y2="12.748" gradientUnits="userSpaceOnUse">
<stop stop-color="#205BF1"/>
<stop offset="0.708333" stop-color="white"/>
</linearGradient>
<linearGradient id="paint5_linear_613_3034" x1="-0.0455454" y1="12.748" x2="75.5433" y2="12.748" gradientUnits="userSpaceOnUse">
<stop stop-color="#205BF1"/>
<stop offset="0.708333" stop-color="white"/>
</linearGradient>
<linearGradient id="paint6_linear_613_3034" x1="-0.0455454" y1="12.748" x2="75.5433" y2="12.748" gradientUnits="userSpaceOnUse">
<stop stop-color="#205BF1"/>
<stop offset="0.708333" stop-color="white"/>
</linearGradient>
</defs>
</svg>
