<svg width="20" height="20" viewBox="0 0 20 20" fill="none" xmlns="http://www.w3.org/2000/svg">
<g id="report-analytics">
<path id="Vector (Stroke)" fill-rule="evenodd" clip-rule="evenodd" d="M9.16634 3.33341C8.7061 3.33341 8.33301 3.70651 8.33301 4.16675C8.33301 4.62699 8.7061 5.00008 9.16634 5.00008H10.833C11.2932 5.00008 11.6663 4.62699 11.6663 4.16675C11.6663 3.70651 11.2932 3.33341 10.833 3.33341H9.16634ZM6.8086 3.33341C7.15179 2.36242 8.07783 1.66675 9.16634 1.66675H10.833C11.9215 1.66675 12.8476 2.36242 13.1908 3.33341H14.1663C14.8294 3.33341 15.4653 3.59681 15.9341 4.06565C16.4029 4.53449 16.6663 5.17037 16.6663 5.83341V15.8334C16.6663 16.4965 16.4029 17.1323 15.9341 17.6012C15.4653 18.07 14.8294 18.3334 14.1663 18.3334H5.83301C5.16997 18.3334 4.53408 18.07 4.06524 17.6012C3.5964 17.1323 3.33301 16.4965 3.33301 15.8334V5.83341C3.33301 5.17037 3.5964 4.53449 4.06524 4.06565C4.53408 3.59681 5.16997 3.33341 5.83301 3.33341H6.8086ZM6.8086 5.00008H5.83301C5.61199 5.00008 5.40003 5.08788 5.24375 5.24416C5.08747 5.40044 4.99967 5.6124 4.99967 5.83341V15.8334C4.99967 16.0544 5.08747 16.2664 5.24375 16.4227C5.40003 16.579 5.61199 16.6667 5.83301 16.6667H14.1663C14.3874 16.6667 14.5993 16.579 14.7556 16.4227C14.9119 16.2664 14.9997 16.0544 14.9997 15.8334V5.83341C14.9997 5.6124 14.9119 5.40044 14.7556 5.24416C14.5993 5.08788 14.3874 5.00008 14.1663 5.00008H13.1908C12.8476 5.97108 11.9215 6.66675 10.833 6.66675H9.16634C8.07783 6.66675 7.15179 5.97108 6.8086 5.00008ZM7.49967 9.16675C7.95991 9.16675 8.33301 9.53984 8.33301 10.0001V14.1667C8.33301 14.627 7.95991 15.0001 7.49967 15.0001C7.03944 15.0001 6.66634 14.627 6.66634 14.1667V10.0001C6.66634 9.53984 7.03944 9.16675 7.49967 9.16675ZM12.4997 10.8334C12.9599 10.8334 13.333 11.2065 13.333 11.6667V14.1667C13.333 14.627 12.9599 15.0001 12.4997 15.0001C12.0394 15.0001 11.6663 14.627 11.6663 14.1667V11.6667C11.6663 11.2065 12.0394 10.8334 12.4997 10.8334ZM9.99967 12.5001C10.4599 12.5001 10.833 12.8732 10.833 13.3334V14.1667C10.833 14.627 10.4599 15.0001 9.99967 15.0001C9.53944 15.0001 9.16634 14.627 9.16634 14.1667V13.3334C9.16634 12.8732 9.53944 12.5001 9.99967 12.5001Z" fill="white"/>
</g>
</svg>
