<svg width="109" height="96" viewBox="0 0 109 96" fill="none" xmlns="http://www.w3.org/2000/svg">
<g opacity="0.4">
<rect width="109" height="96" fill="#212529"/>
<circle cx="55" cy="48" r="41" fill="#D9D9D9"/>
<path d="M55 26.6875C49.6497 26.6875 45.3125 31.0247 45.3125 36.375C45.3125 41.7253 49.6497 46.0625 55 46.0625C60.3503 46.0625 64.6875 41.7253 64.6875 36.375C64.6875 31.0247 60.3503 26.6875 55 26.6875Z" fill="black"/>
<path d="M44.6667 51.2292C39.3164 51.2292 34.9792 55.5664 34.9792 60.9167V63.9864C34.9792 65.9322 36.3894 67.5913 38.3098 67.9049C49.3634 69.7096 60.6366 69.7096 71.6902 67.9049C73.6106 67.5913 75.0208 65.9322 75.0208 63.9864V60.9167C75.0208 55.5664 70.6836 51.2292 65.3333 51.2292H64.4527C63.9761 51.2292 63.5025 51.3045 63.0495 51.4525L60.8136 52.1826C57.036 53.4161 52.964 53.4161 49.1864 52.1826L46.9505 51.4525C46.4974 51.3045 46.0238 51.2292 45.5472 51.2292H44.6667Z" fill="black"/>
</g>
</svg>
