<svg width="56" height="56" viewBox="0 0 56 56" fill="none" xmlns="http://www.w3.org/2000/svg">
<circle cx="28.0063" cy="28" r="28" fill="white"/>
<path d="M26.2247 21.9551C25.2421 20.9852 23.6592 20.9954 22.6892 21.9779C21.7192 22.9605 21.7294 24.5434 22.712 25.5134C23.6946 26.4834 25.2775 26.4732 26.2475 25.4906C27.2175 24.508 27.2073 22.9251 26.2247 21.9551Z" fill="black"/>
<path fill-rule="evenodd" clip-rule="evenodd" d="M29.5178 18.6193C26.6929 15.8305 22.1421 15.8599 19.3534 18.6848C16.5646 21.5097 16.594 26.0605 19.4189 28.8493C21.3586 30.7642 24.1108 31.3492 26.5464 30.616L29.3923 33.4255L27.4164 35.427C27.0526 35.7954 27.0565 36.389 27.4249 36.7528L30.5384 39.8264C30.9069 40.1901 31.5005 40.1863 31.8642 39.8178L33.8401 37.8163L35.3968 39.3531C35.7653 39.7168 36.3589 39.713 36.7226 39.3445L39.3571 36.6759C40.2059 35.8161 40.1969 34.4311 39.3372 33.5823L31.3763 25.7234C32.078 23.2786 31.4576 20.5342 29.5178 18.6193ZM20.6877 20.0021C22.749 17.9141 26.1126 17.8924 28.2006 19.9536C29.7498 21.4831 30.1629 23.731 29.4273 25.6442C29.2936 25.992 29.3786 26.386 29.6438 26.6478L38.0199 34.9167C38.1428 35.0379 38.144 35.2358 38.0228 35.3586L36.0469 37.3601L34.4902 35.8233C34.1217 35.4596 33.5281 35.4634 33.1644 35.8319L31.1885 37.8334L29.4094 36.0771L31.3852 34.0755C31.749 33.7071 31.7452 33.1135 31.3767 32.7497L27.4484 28.8717C27.1832 28.6099 26.7881 28.53 26.4421 28.6682C24.5385 29.4284 22.2854 29.0443 20.7361 27.5149C18.6481 25.4537 18.6265 22.09 20.6877 20.0021Z" fill="black"/>
</svg>
