<svg width="72" height="72" viewBox="0 0 72 72" fill="none" xmlns="http://www.w3.org/2000/svg">
<path d="M36.0063 7.5C28.4477 7.5 21.1986 10.5027 15.8538 15.8475C10.509 21.1922 7.50635 28.4413 7.50635 36C7.50635 43.5587 10.509 50.8078 15.8538 56.1525C21.1986 61.4973 28.4477 64.5 36.0063 64.5C43.565 64.5 50.8141 61.4973 56.1589 56.1525C61.5037 50.8078 64.5063 43.5587 64.5063 36C64.5063 28.4413 61.5037 21.1922 56.1589 15.8475C50.8141 10.5027 43.565 7.5 36.0063 7.5V7.5Z" fill="#039BE5"/>
<path d="M39.8644 43.5537H47.2399L48.3979 36.0612H39.8629V31.9662C39.8629 28.8537 40.8799 26.0937 43.7914 26.0937H48.4699V19.5552C47.6479 19.4442 45.9094 19.2012 42.6244 19.2012C35.7649 19.2012 31.7434 22.8237 31.7434 31.0767V36.0612H24.6919V43.5537H31.7434V64.1472C33.1399 64.3572 34.5544 64.4997 36.0064 64.4997C37.3189 64.4997 38.5999 64.3797 39.8644 64.2087V43.5537Z" fill="white"/>
</svg>
