<svg width="56" height="56" viewBox="0 0 56 56" fill="none" xmlns="http://www.w3.org/2000/svg">
<circle cx="28.0063" cy="28" r="28" fill="white"/>
<path d="M44.3427 24.7359H43.0002V24.6667H28.0002V31.3334H37.4193C36.0452 35.2142 32.3527 38 28.0002 38C22.4777 38 18.0002 33.5225 18.0002 28C18.0002 22.4775 22.4777 18 28.0002 18C30.5493 18 32.8685 18.9617 34.6343 20.5325L39.3485 15.8184C36.3718 13.0442 32.3902 11.3334 28.0002 11.3334C18.796 11.3334 11.3335 18.7959 11.3335 28C11.3335 37.2042 18.796 44.6667 28.0002 44.6667C37.2043 44.6667 44.6668 37.2042 44.6668 28C44.6668 26.8825 44.5518 25.7917 44.3427 24.7359Z" fill="#FFC107"/>
<path d="M13.2549 20.2425L18.7307 24.2584C20.2124 20.59 23.8007 18 27.9999 18C30.549 18 32.8682 18.9617 34.634 20.5325L39.3482 15.8184C36.3715 13.0442 32.3899 11.3334 27.9999 11.3334C21.5982 11.3334 16.0465 14.9475 13.2549 20.2425Z" fill="#FF3D00"/>
<path d="M28.0001 44.6669C32.3051 44.6669 36.2168 43.0194 39.1743 40.3402L34.0159 35.9752C32.3426 37.2427 30.2626 38.0002 28.0001 38.0002C23.6651 38.0002 19.9843 35.236 18.5976 31.3785L13.1626 35.566C15.9209 40.9635 21.5226 44.6669 28.0001 44.6669Z" fill="#4CAF50"/>
<path d="M44.3425 24.7358H43V24.6666H28V31.3333H37.4192C36.7592 33.1975 35.56 34.805 34.0133 35.9758C34.0142 35.975 34.015 35.975 34.0158 35.9741L39.1742 40.3391C38.8092 40.6708 44.6667 36.3333 44.6667 28C44.6667 26.8825 44.5517 25.7916 44.3425 24.7358Z" fill="#1976D2"/>
</svg>
