<svg width="120" height="120" viewBox="0 0 120 120" fill="none" xmlns="http://www.w3.org/2000/svg">
<circle cx="60" cy="60" r="60" fill="#413EFF"/>
<g clip-path="url(#clip0_1_66)">
<path d="M25 60C25 40.6712 40.6712 25 60 25C79.3288 25 95 40.6712 95 60C95 79.3288 79.3288 95 60 95C40.6712 95 25 79.3288 25 60ZM70.2083 57.0833C71.3687 57.0833 72.4815 56.6224 73.3019 55.8019C74.1224 54.9815 74.5833 53.8687 74.5833 52.7083C74.5833 51.548 74.1224 50.4352 73.3019 49.6147C72.4815 48.7943 71.3687 48.3333 70.2083 48.3333C69.048 48.3333 67.9352 48.7943 67.1147 49.6147C66.2943 50.4352 65.8333 51.548 65.8333 52.7083C65.8333 53.8687 66.2943 54.9815 67.1147 55.8019C67.9352 56.6224 69.048 57.0833 70.2083 57.0833ZM54.1667 52.7083C54.1667 51.548 53.7057 50.4352 52.8853 49.6147C52.0648 48.7943 50.952 48.3333 49.7917 48.3333C48.6313 48.3333 47.5185 48.7943 46.6981 49.6147C45.8776 50.4352 45.4167 51.548 45.4167 52.7083C45.4167 53.8687 45.8776 54.9815 46.6981 55.8019C47.5185 56.6224 48.6313 57.0833 49.7917 57.0833C50.952 57.0833 52.0648 56.6224 52.8853 55.8019C53.7057 54.9815 54.1667 53.8687 54.1667 52.7083ZM43.4567 69.1292C42.9771 69.4556 42.6468 69.9592 42.5385 70.5291C42.4302 71.0991 42.5527 71.6887 42.8792 72.1683V72.1713L42.885 72.1771L42.8908 72.1858L42.9142 72.215C43.0051 72.3449 43.0994 72.4723 43.1971 72.5971C43.3867 72.8392 43.6579 73.1688 44.0138 73.5567C44.9724 74.5956 46.0347 75.5338 47.1842 76.3567C50.0133 78.3954 54.2775 80.4167 60 80.4167C65.7225 80.4167 69.9896 78.3925 72.8158 76.3596C73.9663 75.5346 75.0296 74.5945 75.9892 73.5537C76.3551 73.1553 76.7007 72.7387 77.0246 72.3054L77.0887 72.2179L77.1092 72.1888L77.115 72.1771L77.1179 72.1713L77.1208 72.1683C77.448 71.6891 77.5715 71.0996 77.464 70.5293C77.3565 69.9591 77.0269 69.4549 76.5477 69.1277C76.0685 68.8005 75.4789 68.6771 74.9087 68.7845C74.3385 68.892 73.8343 69.2216 73.5071 69.7008L73.4867 69.73C73.2604 70.03 73.02 70.3191 72.7663 70.5962C72.008 71.416 71.1686 72.1568 70.2608 72.8071C68.0208 74.42 64.6317 76.0417 60 76.0417C55.3713 76.0417 51.9792 74.42 49.7392 72.8071C48.8323 72.1579 47.9938 71.4181 47.2367 70.5992C46.9829 70.322 46.7425 70.0329 46.5163 69.7329L46.49 69.6979C46.1623 69.2214 45.6592 68.894 45.0907 68.7874C44.5223 68.6809 43.9348 68.8037 43.4567 69.1292Z" fill="white"/>
</g>
<defs>
<clipPath id="clip0_1_66">
<rect width="70" height="70" fill="white" transform="translate(25 25)"/>
</clipPath>
</defs>
</svg>
