<svg width="120" height="120" viewBox="0 0 120 120" fill="none" xmlns="http://www.w3.org/2000/svg">
<circle cx="60" cy="60" r="60" fill="#41FF3E"/>
<path d="M60 51.25C61.2081 51.25 62.1875 50.2706 62.1875 49.0625C62.1875 47.8544 61.2081 46.875 60 46.875C58.7919 46.875 57.8125 47.8544 57.8125 49.0625C57.8125 50.2706 58.7919 51.25 60 51.25Z" fill="white"/>
<path d="M60 29.375C53.6206 29.3825 47.5045 31.9201 42.9936 36.4311C38.4826 40.942 35.9451 47.058 35.9375 53.4375C35.9299 58.6508 37.6328 63.7226 40.785 67.875C40.785 67.875 41.4413 68.7391 41.5485 68.8638L60 90.625L78.4603 68.8528C78.5566 68.7369 79.215 67.875 79.215 67.875L79.2172 67.8684C82.3679 63.7179 84.07 58.6484 84.0625 53.4375C84.055 47.058 81.5174 40.942 77.0065 36.4311C72.4955 31.9201 66.3795 29.3825 60 29.375ZM60 42.5C61.298 42.5 62.5668 42.8849 63.646 43.606C64.7251 44.3271 65.5663 45.352 66.063 46.5511C66.5597 47.7503 66.6896 49.0698 66.4364 50.3428C66.1832 51.6158 65.5582 52.7851 64.6404 53.7029C63.7226 54.6207 62.5533 55.2457 61.2803 55.4989C60.0073 55.7521 58.6878 55.6222 57.4887 55.1255C56.2895 54.6288 55.2646 53.7876 54.5435 52.7084C53.8224 51.6292 53.4375 50.3604 53.4375 49.0625C53.4393 47.3225 54.1312 45.6544 55.3616 44.424C56.5919 43.1937 58.2601 42.5017 60 42.5ZM68.75 66.5625H64.375V62.1875H55.625V66.5625H51.25V62.1875C51.2512 61.0275 51.7125 59.9154 52.5327 59.0952C53.3529 58.275 54.4651 57.8137 55.625 57.8125H64.375C65.535 57.8137 66.6471 58.275 67.4673 59.0952C68.2876 59.9154 68.7489 61.0275 68.75 62.1875V66.5625Z" fill="white"/>
</svg>
