<svg width="120" height="120" viewBox="0 0 120 120" fill="none" xmlns="http://www.w3.org/2000/svg">
<circle cx="60" cy="60" r="60" fill="#593EFF"/>
<path d="M85.4416 46.9958L81.8541 52.3917C83.5842 55.8423 84.4312 59.6683 84.3192 63.5267C84.2072 67.3851 83.1397 71.1555 81.2124 74.5H40.7874C38.2825 70.1545 37.2445 65.1174 37.8274 60.1356C38.4103 55.1538 40.583 50.4924 44.0234 46.8425C47.4638 43.1926 51.9888 40.7485 56.9275 39.8725C61.8662 38.9964 66.9558 39.7352 71.4416 41.9792L76.8374 38.3917C71.3438 34.869 64.8275 33.2904 58.3309 33.9086C51.8342 34.5267 45.7325 37.3058 41.0018 41.8013C36.2711 46.2968 33.1847 52.249 32.2364 58.7057C31.2881 65.1625 32.5325 71.7507 35.7708 77.4167C36.2798 78.2983 37.0106 79.0314 37.8907 79.5431C38.7708 80.0547 39.7694 80.3272 40.7874 80.3333H81.1833C82.2112 80.3374 83.2219 80.0698 84.1131 79.5576C85.0043 79.0454 85.7443 78.3069 86.2583 77.4167C88.9456 72.7614 90.2943 67.4541 90.1553 62.0807C90.0163 56.7073 88.3951 51.4768 85.4708 46.9667L85.4416 46.9958ZM56.8874 66.9458C57.4292 67.4882 58.0725 67.9185 58.7807 68.212C59.4889 68.5056 60.2479 68.6567 61.0145 68.6567C61.7811 68.6567 62.5402 68.5056 63.2483 68.212C63.9565 67.9185 64.5998 67.4882 65.1416 66.9458L81.6499 42.1833L56.8874 58.6917C56.3451 59.2334 55.9148 59.8768 55.6213 60.5849C55.3277 61.2931 55.1766 62.0522 55.1766 62.8188C55.1766 63.5853 55.3277 64.3444 55.6213 65.0526C55.9148 65.7607 56.3451 66.4041 56.8874 66.9458Z" fill="white"/>
</svg>
